<svg width="30" height="28" viewBox="0 0 30 28" fill="none" xmlns="http://www.w3.org/2000/svg">
<path d="M18.1104 19.926C19.4646 20.4919 20.9688 20.4919 22.323 19.926C22.5972 19.8137 22.8192 19.5908 22.9411 19.3054C23.063 19.0201 23.075 18.695 22.9746 18.4003L22.1629 15.9591C22.3883 15.6676 22.5533 15.3285 22.6469 14.964C22.7405 14.5994 22.7606 14.2179 22.7059 13.8444C22.6105 13.1733 22.281 12.5654 21.7835 12.1427C21.286 11.7199 20.6573 11.5136 20.0233 11.5649C19.3893 11.6162 18.7969 11.9215 18.3648 12.4195C17.9327 12.9175 17.6928 13.5714 17.6932 14.2503C17.692 14.8726 17.8941 15.4758 18.2648 15.956L17.4531 18.3972C17.3521 18.6931 17.3645 19.0196 17.4876 19.3058C17.6107 19.592 17.8345 19.8149 18.1104 19.926ZM19.5394 15.1749C19.3616 15.0247 19.232 14.8191 19.1686 14.5867C19.1052 14.3543 19.1111 14.1065 19.1856 13.8779C19.26 13.6492 19.3993 13.451 19.5841 13.3107C19.7689 13.1704 19.99 13.095 20.2167 13.095C20.4434 13.095 20.6645 13.1704 20.8493 13.3107C21.0341 13.451 21.1734 13.6492 21.2479 13.8779C21.3223 14.1065 21.3283 14.3543 21.2649 14.5867C21.2015 14.8191 21.0719 15.0247 20.894 15.1749C20.7777 15.2737 20.6931 15.4089 20.6522 15.5615C20.6112 15.7141 20.6158 15.8766 20.6654 16.0262L21.5228 18.6078C20.6709 18.8948 19.7568 18.8948 18.9049 18.6078L19.7623 16.0262C19.8125 15.8772 19.8181 15.7151 19.7781 15.5626C19.7382 15.41 19.6547 15.2745 19.5394 15.1749Z" fill="#5858D1"/>
<path d="M2.70071 14.7294H4.6355V16.5602C4.63568 16.6629 4.65526 16.7644 4.69308 16.8588C4.73089 16.9532 4.78615 17.0385 4.85555 17.1095L5.99871 18.2904L4.85841 19.4927C4.78882 19.5639 4.73344 19.6494 4.69561 19.7441C4.65778 19.8387 4.63828 19.9406 4.63828 20.0435C4.63828 20.1464 4.65778 20.2482 4.69561 20.3429C4.73344 20.4375 4.78882 20.5231 4.85841 20.5943L6.00157 21.7782L4.85841 22.9622C4.78901 23.0332 4.73375 23.1185 4.69593 23.2129C4.65812 23.3072 4.63854 23.4088 4.63836 23.5114V24.6405C4.6433 24.8415 4.72238 25.0323 4.85841 25.1714L7.33906 27.7804C7.47274 27.9211 7.65291 28 7.84062 28C8.02833 28 8.2085 27.9211 8.34218 27.7804L10.8228 25.1714C10.8905 25.1006 10.9443 25.0161 10.9811 24.9229C11.0179 24.8296 11.037 24.7295 11.0372 24.6283V14.7294H12.972C13.688 14.7286 14.3745 14.4245 14.8808 13.8839C15.3871 13.3433 15.6719 12.6103 15.6727 11.8457V2.88362C15.6719 2.11909 15.3871 1.3861 14.8808 0.845486C14.3745 0.304877 13.688 0.000807752 12.972 0H2.70071C1.98467 0.000807752 1.29817 0.304877 0.791854 0.845486C0.285537 1.3861 0.000756514 2.11909 0 2.88362V11.8457C0.000756514 12.6103 0.285537 13.3433 0.791854 13.8839C1.29817 14.4245 1.98467 14.7286 2.70071 14.7294ZM1.42894 2.88362C1.4297 2.52373 1.56393 2.17882 1.80227 1.92434C2.04061 1.66986 2.36365 1.52653 2.70071 1.52573H12.9634C13.3004 1.52653 13.6235 1.66986 13.8618 1.92434C14.1002 2.17882 14.2344 2.52373 14.2351 2.88362V11.8457C14.2344 12.2056 14.1002 12.5505 13.8618 12.805C13.6235 13.0595 13.3004 13.2028 12.9634 13.2036H10.3141C10.1246 13.2036 9.9429 13.284 9.80892 13.4271C9.67493 13.5701 9.59965 13.7642 9.59965 13.9665V24.3109L7.83348 26.1693L6.0673 24.3109V23.8227L7.53911 22.3153C7.6087 22.2441 7.66408 22.1586 7.70191 22.0639C7.73974 21.9693 7.75925 21.8674 7.75925 21.7645C7.75925 21.6616 7.73974 21.5597 7.70191 21.4651C7.66408 21.3704 7.6087 21.2849 7.53911 21.2137L6.39596 20.0297L7.53911 18.8488C7.6087 18.7776 7.66408 18.6921 7.70191 18.5975C7.73974 18.5028 7.75925 18.401 7.75925 18.298C7.75925 18.1951 7.73974 18.0933 7.70191 17.9986C7.66408 17.904 7.6087 17.8185 7.53911 17.7473L6.0673 16.2429V13.9665C6.0673 13.7642 5.99203 13.5701 5.85804 13.4271C5.72405 13.284 5.54232 13.2036 5.35283 13.2036H2.70071C2.36365 13.2028 2.04061 13.0595 1.80227 12.805C1.56393 12.5505 1.4297 12.2056 1.42894 11.8457V2.88362Z" fill="#5858D1"/>
<path d="M6.89323 7.93683H8.77086C9.31129 7.93683 9.82958 7.70761 10.2117 7.29959C10.5939 6.89157 10.8085 6.33817 10.8085 5.76114V5.5689C10.8078 4.9924 10.5928 4.43979 10.2107 4.03243C9.82865 3.62507 9.31079 3.39627 8.77086 3.39627H6.89323C6.3533 3.39708 5.83574 3.62666 5.45422 4.03459C5.0727 4.44252 4.85841 4.99545 4.85841 5.57195V5.76114C4.85841 6.33764 5.0727 6.89058 5.45422 7.29851C5.83574 7.70644 6.3533 7.93602 6.89323 7.93683ZM6.28736 5.57195C6.28811 5.40063 6.35218 5.23655 6.46564 5.11541C6.5791 4.99426 6.73277 4.92585 6.89323 4.92505H8.77086C8.93231 4.92505 9.08714 4.99352 9.2013 5.11541C9.31546 5.23731 9.37959 5.40263 9.37959 5.57501V5.76114C9.37959 5.93352 9.31546 6.09884 9.2013 6.22074C9.08714 6.34263 8.93231 6.4111 8.77086 6.4111H6.89323C6.73228 6.4103 6.57818 6.34146 6.46464 6.21966C6.3511 6.09786 6.28736 5.933 6.28736 5.76114V5.57195Z" fill="#5858D1"/>
<path d="M20.2167 7.64389C19.2646 7.6459 18.321 7.8352 17.4331 8.20231C17.3455 8.23817 17.2653 8.29211 17.1972 8.36106C17.1291 8.43 17.0744 8.51259 17.0362 8.60411C16.998 8.69563 16.977 8.7943 16.9745 8.89447C16.972 8.99464 16.988 9.09436 17.0216 9.18793C17.0552 9.2815 17.1057 9.36708 17.1703 9.43981C17.2348 9.51253 17.3122 9.57096 17.3979 9.61176C17.4836 9.65256 17.576 9.67494 17.6698 9.67761C17.7637 9.68028 17.8571 9.6632 17.9447 9.62734C19.1822 9.12121 20.5368 9.04033 21.8194 9.39599C23.102 9.75164 24.2486 10.5261 25.099 11.6112C25.9495 12.6962 26.4613 14.0378 26.5632 15.4485C26.665 16.8593 26.3517 18.2687 25.667 19.4801C24.9822 20.6915 23.9603 21.6444 22.7439 22.2057C21.5275 22.7669 20.1773 22.9086 18.8818 22.6109C17.5863 22.3132 16.4102 21.591 15.5177 20.5451C14.6253 19.4992 14.061 18.1818 13.9036 16.7769C13.8926 16.6767 13.8631 16.5798 13.817 16.4918C13.7708 16.4038 13.7089 16.3263 13.6348 16.2638C13.5606 16.2014 13.4756 16.1551 13.3847 16.1277C13.2938 16.1003 13.1987 16.0922 13.1049 16.104C13.011 16.1159 12.9203 16.1473 12.8379 16.1966C12.7554 16.2458 12.6829 16.3119 12.6243 16.3911C12.5658 16.4703 12.5225 16.5611 12.4968 16.6581C12.4711 16.7552 12.4636 16.8567 12.4747 16.9569C12.6542 18.5479 13.2602 20.0496 14.2199 21.2815C15.1796 22.5135 16.4522 23.4232 17.8846 23.9014C19.317 24.3796 20.8483 24.4058 22.2943 23.977C23.7403 23.5482 25.0396 22.6825 26.0358 21.4841C27.0321 20.2857 27.683 18.8055 27.9102 17.2215C28.1374 15.6376 27.9313 14.0173 27.3167 12.5554C26.702 11.0935 25.705 9.85232 24.4454 8.98102C23.1859 8.10971 21.7175 7.6454 20.2167 7.64389Z" fill="#5858D1"/>
</svg>
