<svg width="30" height="30" viewBox="0 0 30 30" fill="none" xmlns="http://www.w3.org/2000/svg">
<mask id="path-1-outside-1" maskUnits="userSpaceOnUse" x="0" y="0" width="30" height="30" fill="black">
<rect fill="white" width="30" height="30"/>
<path d="M27.91 18.3619C27.5805 18.1754 27.2066 18.0817 26.828 18.0909C26.4495 18.1002 26.0806 18.212 25.7606 18.4144L21.1068 21.3068C21.1121 21.246 21.1252 21.1873 21.1252 21.1252C21.1245 20.5453 20.8938 19.9893 20.4837 19.5792C20.0736 19.1691 19.5176 18.9384 18.9377 18.9377H13.4741C13.1584 18.529 12.7532 18.1982 12.2896 17.9707C11.8261 17.7431 11.3165 17.6249 10.8001 17.6252H8.26695C7.75018 17.6246 7.24017 17.7426 6.7762 17.9702C6.31223 18.1977 5.90666 18.5287 5.59074 18.9377H4.50004V18.0627C4.50004 17.9466 4.45394 17.8354 4.37189 17.7533C4.28985 17.6713 4.17857 17.6252 4.06253 17.6252H1.4375C1.32147 17.6252 1.21019 17.6713 1.12814 17.7533C1.04609 17.8354 1 17.9466 1 18.0627V28.5628C1 28.6788 1.04609 28.7901 1.12814 28.8722C1.21019 28.9542 1.32147 29.0003 1.4375 29.0003H4.06253C4.17857 29.0003 4.28985 28.9542 4.37189 28.8722C4.45394 28.7901 4.50004 28.6788 4.50004 28.5628V27.6878H8.38464C8.6215 27.6871 8.85614 27.7335 9.07498 27.8241C9.29381 27.9148 9.4925 28.0479 9.65953 28.2158C9.90755 28.4654 10.2026 28.6632 10.5277 28.7979C10.8527 28.9325 11.2012 29.0013 11.553 29.0003H14.9721C16.5031 29.0014 18.0009 28.555 19.2816 27.7162L28.0408 21.9897C28.3463 21.7898 28.595 21.5143 28.7628 21.19C28.9306 20.8658 29.0118 20.5037 28.9986 20.1388C28.9854 19.7739 28.8782 19.4186 28.6874 19.1074C28.4967 18.7961 28.2292 18.5393 27.91 18.3619ZM3.62503 28.1253H1.87501V18.5002H3.62503V28.1253ZM27.5618 21.2565L18.8029 26.9834C17.6645 27.7291 16.3331 28.126 14.9721 28.1253H11.553C11.3162 28.1259 11.0815 28.0796 10.8627 27.989C10.6439 27.8983 10.4452 27.7652 10.2782 27.5972C10.0301 27.3477 9.73506 27.1499 9.41003 27.0152C9.08499 26.8805 8.73646 26.8117 8.38464 26.8128H4.50004V19.8127H5.81255C5.88456 19.8127 5.95546 19.7949 6.01896 19.761C6.08246 19.727 6.13659 19.6779 6.17655 19.618C6.40536 19.2738 6.71579 18.9917 7.08015 18.7966C7.44451 18.6016 7.85148 18.4997 8.26476 18.5002H10.8001C11.2134 18.4997 11.6204 18.6016 11.9847 18.7966C12.3491 18.9917 12.6595 19.2738 12.8883 19.618C12.9281 19.6776 12.9819 19.7265 13.0449 19.7605C13.108 19.7944 13.1785 19.8123 13.2501 19.8127H18.9377C19.2858 19.8127 19.6196 19.951 19.8658 20.1971C20.1119 20.4433 20.2502 20.7771 20.2502 21.1252C20.2502 21.4733 20.1119 21.8072 19.8658 22.0533C19.6196 22.2994 19.2858 22.4377 18.9377 22.4377H12.3751C12.2591 22.4377 12.1478 22.4838 12.0658 22.5659C11.9837 22.6479 11.9376 22.7592 11.9376 22.8752C11.9376 22.9913 11.9837 23.1025 12.0658 23.1846C12.1478 23.2666 12.2591 23.3127 12.3751 23.3127H18.9377C19.4158 23.3088 19.8798 23.1509 20.2611 22.8625L26.2226 19.1564C26.4112 19.0393 26.6277 18.9747 26.8497 18.9694C27.0717 18.964 27.2911 19.0181 27.4852 19.126C27.6792 19.234 27.8409 19.3918 27.9534 19.5833C28.066 19.7747 28.1253 19.9927 28.1253 20.2148C28.1255 20.4216 28.0741 20.6252 27.9757 20.8071C27.8773 20.989 27.735 21.1435 27.5618 21.2565ZM16.7502 5.81255V1.4375C16.7502 1.32147 16.7963 1.21019 16.8783 1.12814C16.9604 1.04609 17.0716 1 17.1877 1C17.3037 1 17.415 1.04609 17.497 1.12814C17.5791 1.21019 17.6252 1.32147 17.6252 1.4375V5.81255C17.6252 5.92858 17.5791 6.03987 17.497 6.12191C17.415 6.20396 17.3037 6.25006 17.1877 6.25006C17.0716 6.25006 16.9604 6.20396 16.8783 6.12191C16.7963 6.03987 16.7502 5.92858 16.7502 5.81255ZM18.9377 5.81255V3.62503C18.9377 3.50899 18.9838 3.39771 19.0658 3.31567C19.1479 3.23362 19.2592 3.18752 19.3752 3.18752C19.4912 3.18752 19.6025 3.23362 19.6846 3.31567C19.7666 3.39771 19.8127 3.50899 19.8127 3.62503V5.81255C19.8127 5.92858 19.7666 6.03987 19.6846 6.12191C19.6025 6.20396 19.4912 6.25006 19.3752 6.25006C19.2592 6.25006 19.1479 6.20396 19.0658 6.12191C18.9838 6.03987 18.9377 5.92858 18.9377 5.81255ZM14.5626 5.81255V3.62503C14.5626 3.50899 14.6087 3.39771 14.6908 3.31567C14.7728 3.23362 14.8841 3.18752 15.0001 3.18752C15.1162 3.18752 15.2275 3.23362 15.3095 3.31567C15.3916 3.39771 15.4377 3.50899 15.4377 3.62503V5.81255C15.4377 5.92858 15.3916 6.03987 15.3095 6.12191C15.2275 6.20396 15.1162 6.25006 15.0001 6.25006C14.8841 6.25006 14.7728 6.20396 14.6908 6.12191C14.6087 6.03987 14.5626 5.92858 14.5626 5.81255ZM14.3876 14.7499C14.3434 14.6566 14.3336 14.5507 14.3599 14.4508C14.3863 14.351 14.4471 14.2637 14.5316 14.2043C15.1534 13.7683 15.5902 13.1161 15.7566 12.3751H15.4377C15.3216 12.3751 15.2103 12.329 15.1283 12.247C15.0462 12.1649 15.0001 12.0536 15.0001 11.9376C15.0001 11.8216 15.0462 11.7103 15.1283 11.6283C15.2103 11.5462 15.3216 11.5001 15.4377 11.5001H15.8213C15.8135 11.3737 15.7975 11.2478 15.7737 11.1234L15.7583 11.053C15.7048 10.791 15.7104 10.5204 15.7747 10.2609C15.8391 10.0013 15.9605 9.75941 16.1302 9.55278C16.304 9.34005 16.5231 9.16881 16.7715 9.05156C17.02 8.93432 17.2914 8.87402 17.5661 8.87508C17.8151 8.86916 18.0628 8.91262 18.2949 9.00295C18.527 9.09328 18.7389 9.2287 18.9183 9.40137C19.0978 9.57405 19.2413 9.78057 19.3405 10.009C19.4397 10.2374 19.4927 10.4833 19.4964 10.7323C19.4964 10.8483 19.4503 10.9596 19.3682 11.0417C19.2862 11.1237 19.1749 11.1698 19.0589 11.1698C18.9428 11.1698 18.8316 11.1237 18.7495 11.0417C18.6675 10.9596 18.6214 10.8483 18.6214 10.7323C18.6111 10.5262 18.5394 10.3279 18.4155 10.1629C18.2917 9.99795 18.1212 9.8738 17.9262 9.80647C17.7312 9.73913 17.5205 9.7317 17.3212 9.78512C17.1219 9.83854 16.9431 9.95037 16.8079 10.1062C16.7207 10.2123 16.6582 10.3365 16.6249 10.4698C16.5916 10.603 16.5883 10.742 16.6154 10.8767L16.6307 10.9467C16.6661 11.1293 16.6885 11.3143 16.6977 11.5001H17.6252C17.7412 11.5001 17.8525 11.5462 17.9345 11.6283C18.0166 11.7103 18.0627 11.8216 18.0627 11.9376C18.0627 12.0536 18.0166 12.1649 17.9345 12.247C17.8525 12.329 17.7412 12.3751 17.6252 12.3751H16.65C16.5649 12.87 16.3853 13.3438 16.121 13.7708C16.6449 13.7075 17.1764 13.7747 17.668 13.9663C17.9359 14.0716 18.2212 14.1255 18.5089 14.1251H18.7277C18.8257 14.1262 18.9221 14.1001 19.0061 14.0495C19.09 13.999 19.1583 13.9261 19.2033 13.839C19.2293 13.7877 19.2652 13.7421 19.3088 13.7046C19.3525 13.6672 19.4032 13.6388 19.4579 13.621C19.5126 13.6032 19.5702 13.5963 19.6276 13.6008C19.6849 13.6053 19.7408 13.621 19.792 13.6471C19.8433 13.6733 19.8889 13.7092 19.9262 13.753C19.9636 13.7967 19.9919 13.8474 20.0096 13.9021C20.0274 13.9568 20.0341 14.0145 20.0295 14.0719C20.0249 14.1292 20.0091 14.1851 19.9829 14.2363C19.8651 14.4673 19.6854 14.661 19.4639 14.7959C19.2425 14.9308 18.9879 15.0015 18.7286 15.0001H18.5098C18.1126 15.0008 17.7188 14.9266 17.3491 14.7814C16.8824 14.5993 16.3691 14.5736 15.8865 14.7083L14.9008 14.9848C14.8013 15.0126 14.6952 15.0042 14.6013 14.9612C14.5074 14.9182 14.4317 14.8433 14.3876 14.7499ZM17.1877 18.0627C18.3126 18.0627 19.4122 17.7291 20.3475 17.1042C21.2828 16.4792 22.0118 15.5909 22.4423 14.5517C22.8728 13.5124 22.9854 12.3688 22.7659 11.2655C22.5465 10.1623 22.0048 9.14883 21.2094 8.35341C20.414 7.55799 19.4005 7.0163 18.2973 6.79684C17.194 6.57739 16.0504 6.69002 15.0111 7.1205C13.9719 7.55098 13.0836 8.27997 12.4586 9.21528C11.8337 10.1506 11.5001 11.2502 11.5001 12.3751C11.5018 13.883 12.1016 15.3287 13.1679 16.3949C14.2341 17.4612 15.6798 18.0609 17.1877 18.0627ZM17.1877 7.56257C18.1395 7.56257 19.07 7.84482 19.8614 8.37363C20.6528 8.90244 21.2696 9.65406 21.6339 10.5334C21.9981 11.4128 22.0934 12.3805 21.9077 13.314C21.7221 14.2475 21.2637 15.1051 20.5907 15.7781C19.9176 16.4512 19.0601 16.9095 18.1266 17.0952C17.193 17.2809 16.2254 17.1856 15.346 16.8213C14.4666 16.4571 13.715 15.8402 13.1862 15.0488C12.6574 14.2574 12.3751 13.327 12.3751 12.3751C12.3766 11.0992 12.8841 9.876 13.7863 8.97379C14.6885 8.07159 15.9118 7.56407 17.1877 7.56257Z"/>
</mask>
<path d="M27.91 18.3619C27.5805 18.1754 27.2066 18.0817 26.828 18.0909C26.4495 18.1002 26.0806 18.212 25.7606 18.4144L21.1068 21.3068C21.1121 21.246 21.1252 21.1873 21.1252 21.1252C21.1245 20.5453 20.8938 19.9893 20.4837 19.5792C20.0736 19.1691 19.5176 18.9384 18.9377 18.9377H13.4741C13.1584 18.529 12.7532 18.1982 12.2896 17.9707C11.8261 17.7431 11.3165 17.6249 10.8001 17.6252H8.26695C7.75018 17.6246 7.24017 17.7426 6.7762 17.9702C6.31223 18.1977 5.90666 18.5287 5.59074 18.9377H4.50004V18.0627C4.50004 17.9466 4.45394 17.8354 4.37189 17.7533C4.28985 17.6713 4.17857 17.6252 4.06253 17.6252H1.4375C1.32147 17.6252 1.21019 17.6713 1.12814 17.7533C1.04609 17.8354 1 17.9466 1 18.0627V28.5628C1 28.6788 1.04609 28.7901 1.12814 28.8722C1.21019 28.9542 1.32147 29.0003 1.4375 29.0003H4.06253C4.17857 29.0003 4.28985 28.9542 4.37189 28.8722C4.45394 28.7901 4.50004 28.6788 4.50004 28.5628V27.6878H8.38464C8.6215 27.6871 8.85614 27.7335 9.07498 27.8241C9.29381 27.9148 9.4925 28.0479 9.65953 28.2158C9.90755 28.4654 10.2026 28.6632 10.5277 28.7979C10.8527 28.9325 11.2012 29.0013 11.553 29.0003H14.9721C16.5031 29.0014 18.0009 28.555 19.2816 27.7162L28.0408 21.9897C28.3463 21.7898 28.595 21.5143 28.7628 21.19C28.9306 20.8658 29.0118 20.5037 28.9986 20.1388C28.9854 19.7739 28.8782 19.4186 28.6874 19.1074C28.4967 18.7961 28.2292 18.5393 27.91 18.3619ZM3.62503 28.1253H1.87501V18.5002H3.62503V28.1253ZM27.5618 21.2565L18.8029 26.9834C17.6645 27.7291 16.3331 28.126 14.9721 28.1253H11.553C11.3162 28.1259 11.0815 28.0796 10.8627 27.989C10.6439 27.8983 10.4452 27.7652 10.2782 27.5972C10.0301 27.3477 9.73506 27.1499 9.41003 27.0152C9.08499 26.8805 8.73646 26.8117 8.38464 26.8128H4.50004V19.8127H5.81255C5.88456 19.8127 5.95546 19.7949 6.01896 19.761C6.08246 19.727 6.13659 19.6779 6.17655 19.618C6.40536 19.2738 6.71579 18.9917 7.08015 18.7966C7.44451 18.6016 7.85148 18.4997 8.26476 18.5002H10.8001C11.2134 18.4997 11.6204 18.6016 11.9847 18.7966C12.3491 18.9917 12.6595 19.2738 12.8883 19.618C12.9281 19.6776 12.9819 19.7265 13.0449 19.7605C13.108 19.7944 13.1785 19.8123 13.2501 19.8127H18.9377C19.2858 19.8127 19.6196 19.951 19.8658 20.1971C20.1119 20.4433 20.2502 20.7771 20.2502 21.1252C20.2502 21.4733 20.1119 21.8072 19.8658 22.0533C19.6196 22.2994 19.2858 22.4377 18.9377 22.4377H12.3751C12.2591 22.4377 12.1478 22.4838 12.0658 22.5659C11.9837 22.6479 11.9376 22.7592 11.9376 22.8752C11.9376 22.9913 11.9837 23.1025 12.0658 23.1846C12.1478 23.2666 12.2591 23.3127 12.3751 23.3127H18.9377C19.4158 23.3088 19.8798 23.1509 20.2611 22.8625L26.2226 19.1564C26.4112 19.0393 26.6277 18.9747 26.8497 18.9694C27.0717 18.964 27.2911 19.0181 27.4852 19.126C27.6792 19.234 27.8409 19.3918 27.9534 19.5833C28.066 19.7747 28.1253 19.9927 28.1253 20.2148C28.1255 20.4216 28.0741 20.6252 27.9757 20.8071C27.8773 20.989 27.735 21.1435 27.5618 21.2565ZM16.7502 5.81255V1.4375C16.7502 1.32147 16.7963 1.21019 16.8783 1.12814C16.9604 1.04609 17.0716 1 17.1877 1C17.3037 1 17.415 1.04609 17.497 1.12814C17.5791 1.21019 17.6252 1.32147 17.6252 1.4375V5.81255C17.6252 5.92858 17.5791 6.03987 17.497 6.12191C17.415 6.20396 17.3037 6.25006 17.1877 6.25006C17.0716 6.25006 16.9604 6.20396 16.8783 6.12191C16.7963 6.03987 16.7502 5.92858 16.7502 5.81255ZM18.9377 5.81255V3.62503C18.9377 3.50899 18.9838 3.39771 19.0658 3.31567C19.1479 3.23362 19.2592 3.18752 19.3752 3.18752C19.4912 3.18752 19.6025 3.23362 19.6846 3.31567C19.7666 3.39771 19.8127 3.50899 19.8127 3.62503V5.81255C19.8127 5.92858 19.7666 6.03987 19.6846 6.12191C19.6025 6.20396 19.4912 6.25006 19.3752 6.25006C19.2592 6.25006 19.1479 6.20396 19.0658 6.12191C18.9838 6.03987 18.9377 5.92858 18.9377 5.81255ZM14.5626 5.81255V3.62503C14.5626 3.50899 14.6087 3.39771 14.6908 3.31567C14.7728 3.23362 14.8841 3.18752 15.0001 3.18752C15.1162 3.18752 15.2275 3.23362 15.3095 3.31567C15.3916 3.39771 15.4377 3.50899 15.4377 3.62503V5.81255C15.4377 5.92858 15.3916 6.03987 15.3095 6.12191C15.2275 6.20396 15.1162 6.25006 15.0001 6.25006C14.8841 6.25006 14.7728 6.20396 14.6908 6.12191C14.6087 6.03987 14.5626 5.92858 14.5626 5.81255ZM14.3876 14.7499C14.3434 14.6566 14.3336 14.5507 14.3599 14.4508C14.3863 14.351 14.4471 14.2637 14.5316 14.2043C15.1534 13.7683 15.5902 13.1161 15.7566 12.3751H15.4377C15.3216 12.3751 15.2103 12.329 15.1283 12.247C15.0462 12.1649 15.0001 12.0536 15.0001 11.9376C15.0001 11.8216 15.0462 11.7103 15.1283 11.6283C15.2103 11.5462 15.3216 11.5001 15.4377 11.5001H15.8213C15.8135 11.3737 15.7975 11.2478 15.7737 11.1234L15.7583 11.053C15.7048 10.791 15.7104 10.5204 15.7747 10.2609C15.8391 10.0013 15.9605 9.75941 16.1302 9.55278C16.304 9.34005 16.5231 9.16881 16.7715 9.05156C17.02 8.93432 17.2914 8.87402 17.5661 8.87508C17.8151 8.86916 18.0628 8.91262 18.2949 9.00295C18.527 9.09328 18.7389 9.2287 18.9183 9.40137C19.0978 9.57405 19.2413 9.78057 19.3405 10.009C19.4397 10.2374 19.4927 10.4833 19.4964 10.7323C19.4964 10.8483 19.4503 10.9596 19.3682 11.0417C19.2862 11.1237 19.1749 11.1698 19.0589 11.1698C18.9428 11.1698 18.8316 11.1237 18.7495 11.0417C18.6675 10.9596 18.6214 10.8483 18.6214 10.7323C18.6111 10.5262 18.5394 10.3279 18.4155 10.1629C18.2917 9.99795 18.1212 9.8738 17.9262 9.80647C17.7312 9.73913 17.5205 9.7317 17.3212 9.78512C17.1219 9.83854 16.9431 9.95037 16.8079 10.1062C16.7207 10.2123 16.6582 10.3365 16.6249 10.4698C16.5916 10.603 16.5883 10.742 16.6154 10.8767L16.6307 10.9467C16.6661 11.1293 16.6885 11.3143 16.6977 11.5001H17.6252C17.7412 11.5001 17.8525 11.5462 17.9345 11.6283C18.0166 11.7103 18.0627 11.8216 18.0627 11.9376C18.0627 12.0536 18.0166 12.1649 17.9345 12.247C17.8525 12.329 17.7412 12.3751 17.6252 12.3751H16.65C16.5649 12.87 16.3853 13.3438 16.121 13.7708C16.6449 13.7075 17.1764 13.7747 17.668 13.9663C17.9359 14.0716 18.2212 14.1255 18.5089 14.1251H18.7277C18.8257 14.1262 18.9221 14.1001 19.0061 14.0495C19.09 13.999 19.1583 13.9261 19.2033 13.839C19.2293 13.7877 19.2652 13.7421 19.3088 13.7046C19.3525 13.6672 19.4032 13.6388 19.4579 13.621C19.5126 13.6032 19.5702 13.5963 19.6276 13.6008C19.6849 13.6053 19.7408 13.621 19.792 13.6471C19.8433 13.6733 19.8889 13.7092 19.9262 13.753C19.9636 13.7967 19.9919 13.8474 20.0096 13.9021C20.0274 13.9568 20.0341 14.0145 20.0295 14.0719C20.0249 14.1292 20.0091 14.1851 19.9829 14.2363C19.8651 14.4673 19.6854 14.661 19.4639 14.7959C19.2425 14.9308 18.9879 15.0015 18.7286 15.0001H18.5098C18.1126 15.0008 17.7188 14.9266 17.3491 14.7814C16.8824 14.5993 16.3691 14.5736 15.8865 14.7083L14.9008 14.9848C14.8013 15.0126 14.6952 15.0042 14.6013 14.9612C14.5074 14.9182 14.4317 14.8433 14.3876 14.7499ZM17.1877 18.0627C18.3126 18.0627 19.4122 17.7291 20.3475 17.1042C21.2828 16.4792 22.0118 15.5909 22.4423 14.5517C22.8728 13.5124 22.9854 12.3688 22.7659 11.2655C22.5465 10.1623 22.0048 9.14883 21.2094 8.35341C20.414 7.55799 19.4005 7.0163 18.2973 6.79684C17.194 6.57739 16.0504 6.69002 15.0111 7.1205C13.9719 7.55098 13.0836 8.27997 12.4586 9.21528C11.8337 10.1506 11.5001 11.2502 11.5001 12.3751C11.5018 13.883 12.1016 15.3287 13.1679 16.3949C14.2341 17.4612 15.6798 18.0609 17.1877 18.0627ZM17.1877 7.56257C18.1395 7.56257 19.07 7.84482 19.8614 8.37363C20.6528 8.90244 21.2696 9.65406 21.6339 10.5334C21.9981 11.4128 22.0934 12.3805 21.9077 13.314C21.7221 14.2475 21.2637 15.1051 20.5907 15.7781C19.9176 16.4512 19.0601 16.9095 18.1266 17.0952C17.193 17.2809 16.2254 17.1856 15.346 16.8213C14.4666 16.4571 13.715 15.8402 13.1862 15.0488C12.6574 14.2574 12.3751 13.327 12.3751 12.3751C12.3766 11.0992 12.8841 9.876 13.7863 8.97379C14.6885 8.07159 15.9118 7.56407 17.1877 7.56257Z" fill="#5858D1"/>
<path d="M27.91 18.3619C27.5805 18.1754 27.2066 18.0817 26.828 18.0909C26.4495 18.1002 26.0806 18.212 25.7606 18.4144L21.1068 21.3068C21.1121 21.246 21.1252 21.1873 21.1252 21.1252C21.1245 20.5453 20.8938 19.9893 20.4837 19.5792C20.0736 19.1691 19.5176 18.9384 18.9377 18.9377H13.4741C13.1584 18.529 12.7532 18.1982 12.2896 17.9707C11.8261 17.7431 11.3165 17.6249 10.8001 17.6252H8.26695C7.75018 17.6246 7.24017 17.7426 6.7762 17.9702C6.31223 18.1977 5.90666 18.5287 5.59074 18.9377H4.50004V18.0627C4.50004 17.9466 4.45394 17.8354 4.37189 17.7533C4.28985 17.6713 4.17857 17.6252 4.06253 17.6252H1.4375C1.32147 17.6252 1.21019 17.6713 1.12814 17.7533C1.04609 17.8354 1 17.9466 1 18.0627V28.5628C1 28.6788 1.04609 28.7901 1.12814 28.8722C1.21019 28.9542 1.32147 29.0003 1.4375 29.0003H4.06253C4.17857 29.0003 4.28985 28.9542 4.37189 28.8722C4.45394 28.7901 4.50004 28.6788 4.50004 28.5628V27.6878H8.38464C8.6215 27.6871 8.85614 27.7335 9.07498 27.8241C9.29381 27.9148 9.4925 28.0479 9.65953 28.2158C9.90755 28.4654 10.2026 28.6632 10.5277 28.7979C10.8527 28.9325 11.2012 29.0013 11.553 29.0003H14.9721C16.5031 29.0014 18.0009 28.555 19.2816 27.7162L28.0408 21.9897C28.3463 21.7898 28.595 21.5143 28.7628 21.19C28.9306 20.8658 29.0118 20.5037 28.9986 20.1388C28.9854 19.7739 28.8782 19.4186 28.6874 19.1074C28.4967 18.7961 28.2292 18.5393 27.91 18.3619ZM3.62503 28.1253H1.87501V18.5002H3.62503V28.1253ZM27.5618 21.2565L18.8029 26.9834C17.6645 27.7291 16.3331 28.126 14.9721 28.1253H11.553C11.3162 28.1259 11.0815 28.0796 10.8627 27.989C10.6439 27.8983 10.4452 27.7652 10.2782 27.5972C10.0301 27.3477 9.73506 27.1499 9.41003 27.0152C9.08499 26.8805 8.73646 26.8117 8.38464 26.8128H4.50004V19.8127H5.81255C5.88456 19.8127 5.95546 19.7949 6.01896 19.761C6.08246 19.727 6.13659 19.6779 6.17655 19.618C6.40536 19.2738 6.71579 18.9917 7.08015 18.7966C7.44451 18.6016 7.85148 18.4997 8.26476 18.5002H10.8001C11.2134 18.4997 11.6204 18.6016 11.9847 18.7966C12.3491 18.9917 12.6595 19.2738 12.8883 19.618C12.9281 19.6776 12.9819 19.7265 13.0449 19.7605C13.108 19.7944 13.1785 19.8123 13.2501 19.8127H18.9377C19.2858 19.8127 19.6196 19.951 19.8658 20.1971C20.1119 20.4433 20.2502 20.7771 20.2502 21.1252C20.2502 21.4733 20.1119 21.8072 19.8658 22.0533C19.6196 22.2994 19.2858 22.4377 18.9377 22.4377H12.3751C12.2591 22.4377 12.1478 22.4838 12.0658 22.5659C11.9837 22.6479 11.9376 22.7592 11.9376 22.8752C11.9376 22.9913 11.9837 23.1025 12.0658 23.1846C12.1478 23.2666 12.2591 23.3127 12.3751 23.3127H18.9377C19.4158 23.3088 19.8798 23.1509 20.2611 22.8625L26.2226 19.1564C26.4112 19.0393 26.6277 18.9747 26.8497 18.9694C27.0717 18.964 27.2911 19.0181 27.4852 19.126C27.6792 19.234 27.8409 19.3918 27.9534 19.5833C28.066 19.7747 28.1253 19.9927 28.1253 20.2148C28.1255 20.4216 28.0741 20.6252 27.9757 20.8071C27.8773 20.989 27.735 21.1435 27.5618 21.2565ZM16.7502 5.81255V1.4375C16.7502 1.32147 16.7963 1.21019 16.8783 1.12814C16.9604 1.04609 17.0716 1 17.1877 1C17.3037 1 17.415 1.04609 17.497 1.12814C17.5791 1.21019 17.6252 1.32147 17.6252 1.4375V5.81255C17.6252 5.92858 17.5791 6.03987 17.497 6.12191C17.415 6.20396 17.3037 6.25006 17.1877 6.25006C17.0716 6.25006 16.9604 6.20396 16.8783 6.12191C16.7963 6.03987 16.7502 5.92858 16.7502 5.81255ZM18.9377 5.81255V3.62503C18.9377 3.50899 18.9838 3.39771 19.0658 3.31567C19.1479 3.23362 19.2592 3.18752 19.3752 3.18752C19.4912 3.18752 19.6025 3.23362 19.6846 3.31567C19.7666 3.39771 19.8127 3.50899 19.8127 3.62503V5.81255C19.8127 5.92858 19.7666 6.03987 19.6846 6.12191C19.6025 6.20396 19.4912 6.25006 19.3752 6.25006C19.2592 6.25006 19.1479 6.20396 19.0658 6.12191C18.9838 6.03987 18.9377 5.92858 18.9377 5.81255ZM14.5626 5.81255V3.62503C14.5626 3.50899 14.6087 3.39771 14.6908 3.31567C14.7728 3.23362 14.8841 3.18752 15.0001 3.18752C15.1162 3.18752 15.2275 3.23362 15.3095 3.31567C15.3916 3.39771 15.4377 3.50899 15.4377 3.62503V5.81255C15.4377 5.92858 15.3916 6.03987 15.3095 6.12191C15.2275 6.20396 15.1162 6.25006 15.0001 6.25006C14.8841 6.25006 14.7728 6.20396 14.6908 6.12191C14.6087 6.03987 14.5626 5.92858 14.5626 5.81255ZM14.3876 14.7499C14.3434 14.6566 14.3336 14.5507 14.3599 14.4508C14.3863 14.351 14.4471 14.2637 14.5316 14.2043C15.1534 13.7683 15.5902 13.1161 15.7566 12.3751H15.4377C15.3216 12.3751 15.2103 12.329 15.1283 12.247C15.0462 12.1649 15.0001 12.0536 15.0001 11.9376C15.0001 11.8216 15.0462 11.7103 15.1283 11.6283C15.2103 11.5462 15.3216 11.5001 15.4377 11.5001H15.8213C15.8135 11.3737 15.7975 11.2478 15.7737 11.1234L15.7583 11.053C15.7048 10.791 15.7104 10.5204 15.7747 10.2609C15.8391 10.0013 15.9605 9.75941 16.1302 9.55278C16.304 9.34005 16.5231 9.16881 16.7715 9.05156C17.02 8.93432 17.2914 8.87402 17.5661 8.87508C17.8151 8.86916 18.0628 8.91262 18.2949 9.00295C18.527 9.09328 18.7389 9.2287 18.9183 9.40137C19.0978 9.57405 19.2413 9.78057 19.3405 10.009C19.4397 10.2374 19.4927 10.4833 19.4964 10.7323C19.4964 10.8483 19.4503 10.9596 19.3682 11.0417C19.2862 11.1237 19.1749 11.1698 19.0589 11.1698C18.9428 11.1698 18.8316 11.1237 18.7495 11.0417C18.6675 10.9596 18.6214 10.8483 18.6214 10.7323C18.6111 10.5262 18.5394 10.3279 18.4155 10.1629C18.2917 9.99795 18.1212 9.8738 17.9262 9.80647C17.7312 9.73913 17.5205 9.7317 17.3212 9.78512C17.1219 9.83854 16.9431 9.95037 16.8079 10.1062C16.7207 10.2123 16.6582 10.3365 16.6249 10.4698C16.5916 10.603 16.5883 10.742 16.6154 10.8767L16.6307 10.9467C16.6661 11.1293 16.6885 11.3143 16.6977 11.5001H17.6252C17.7412 11.5001 17.8525 11.5462 17.9345 11.6283C18.0166 11.7103 18.0627 11.8216 18.0627 11.9376C18.0627 12.0536 18.0166 12.1649 17.9345 12.247C17.8525 12.329 17.7412 12.3751 17.6252 12.3751H16.65C16.5649 12.87 16.3853 13.3438 16.121 13.7708C16.6449 13.7075 17.1764 13.7747 17.668 13.9663C17.9359 14.0716 18.2212 14.1255 18.5089 14.1251H18.7277C18.8257 14.1262 18.9221 14.1001 19.0061 14.0495C19.09 13.999 19.1583 13.9261 19.2033 13.839C19.2293 13.7877 19.2652 13.7421 19.3088 13.7046C19.3525 13.6672 19.4032 13.6388 19.4579 13.621C19.5126 13.6032 19.5702 13.5963 19.6276 13.6008C19.6849 13.6053 19.7408 13.621 19.792 13.6471C19.8433 13.6733 19.8889 13.7092 19.9262 13.753C19.9636 13.7967 19.9919 13.8474 20.0096 13.9021C20.0274 13.9568 20.0341 14.0145 20.0295 14.0719C20.0249 14.1292 20.0091 14.1851 19.9829 14.2363C19.8651 14.4673 19.6854 14.661 19.4639 14.7959C19.2425 14.9308 18.9879 15.0015 18.7286 15.0001H18.5098C18.1126 15.0008 17.7188 14.9266 17.3491 14.7814C16.8824 14.5993 16.3691 14.5736 15.8865 14.7083L14.9008 14.9848C14.8013 15.0126 14.6952 15.0042 14.6013 14.9612C14.5074 14.9182 14.4317 14.8433 14.3876 14.7499ZM17.1877 18.0627C18.3126 18.0627 19.4122 17.7291 20.3475 17.1042C21.2828 16.4792 22.0118 15.5909 22.4423 14.5517C22.8728 13.5124 22.9854 12.3688 22.7659 11.2655C22.5465 10.1623 22.0048 9.14883 21.2094 8.35341C20.414 7.55799 19.4005 7.0163 18.2973 6.79684C17.194 6.57739 16.0504 6.69002 15.0111 7.1205C13.9719 7.55098 13.0836 8.27997 12.4586 9.21528C11.8337 10.1506 11.5001 11.2502 11.5001 12.3751C11.5018 13.883 12.1016 15.3287 13.1679 16.3949C14.2341 17.4612 15.6798 18.0609 17.1877 18.0627ZM17.1877 7.56257C18.1395 7.56257 19.07 7.84482 19.8614 8.37363C20.6528 8.90244 21.2696 9.65406 21.6339 10.5334C21.9981 11.4128 22.0934 12.3805 21.9077 13.314C21.7221 14.2475 21.2637 15.1051 20.5907 15.7781C19.9176 16.4512 19.0601 16.9095 18.1266 17.0952C17.193 17.2809 16.2254 17.1856 15.346 16.8213C14.4666 16.4571 13.715 15.8402 13.1862 15.0488C12.6574 14.2574 12.3751 13.327 12.3751 12.3751C12.3766 11.0992 12.8841 9.876 13.7863 8.97379C14.6885 8.07159 15.9118 7.56407 17.1877 7.56257Z" stroke="#5858D1" stroke-width="0.6" mask="url(#path-1-outside-1)"/>
</svg>
