<svg width="30" height="30" viewBox="0 0 30 30" fill="none" xmlns="http://www.w3.org/2000/svg">
<mask id="path-1-outside-1" maskUnits="userSpaceOnUse" x="0" y="0" width="30" height="30" fill="black">
<rect fill="white" width="30" height="30"/>
<path d="M28.4837 1H7.01301C6.77006 1 6.55748 1.21075 6.55748 1.45161V13.0731H1.45553C1.21258 13.0731 1 13.2839 1 13.5247V25.7785C1 27.5548 2.4577 29 4.24946 29H25.7505C27.5423 29 29 27.5548 29 25.7785V1.45161C28.9393 1.21075 28.757 1 28.4837 1ZM1.91106 25.7785V13.9763H6.55748V25.7785C6.55748 27.043 5.52495 28.0968 4.21909 28.0968C2.91323 28.0968 1.91106 27.043 1.91106 25.7785ZM28.0282 25.7785C28.0282 27.043 26.9957 28.0968 25.6898 28.0968H6.46638C6.46638 28.0968 6.46638 28.0968 6.49675 28.0667C6.52711 28.0366 6.58785 27.9763 6.61822 27.9462C6.64859 27.9161 6.67896 27.886 6.70933 27.8559C6.7397 27.8258 6.77007 27.7656 6.80043 27.7355C6.8308 27.7054 6.86117 27.6753 6.89154 27.6151C6.92191 27.5548 6.95228 27.5247 6.98265 27.4645C7.01302 27.4344 7.04338 27.3742 7.04338 27.3441C7.07375 27.2839 7.10412 27.2538 7.13449 27.1936C7.16486 27.1634 7.16486 27.1032 7.19523 27.0731C7.2256 27.0129 7.2256 26.9527 7.25597 26.8925C7.28633 26.8624 7.28633 26.8022 7.3167 26.772C7.34707 26.7118 7.34707 26.6516 7.37744 26.5914C7.37744 26.5613 7.40781 26.5011 7.40781 26.471C7.40781 26.4108 7.43818 26.3204 7.43818 26.2602C7.43818 26.2301 7.43818 26.2 7.46855 26.1398C7.46855 26.0194 7.49892 25.929 7.49892 25.8086V1.90323H28.0282V25.7785Z"/>
<path d="M10.961 23.8817C11.0521 24.0323 11.2039 24.0925 11.3557 24.0925C11.5076 24.0925 11.6594 24.0022 11.7505 23.8817L13.7549 20.4495C13.8764 20.2387 13.8156 19.9677 13.603 19.8172C13.3905 19.6968 13.1171 19.757 12.9653 19.9677L11.3557 22.7075L10.9002 21.9247C10.7787 21.714 10.5054 21.6237 10.2625 21.7742C10.0499 21.8946 9.95879 22.1656 10.1106 22.4065L10.961 23.8817Z"/>
<path d="M15.577 23.5204H24.9913C25.2343 23.5204 25.4469 23.3097 25.4469 23.0688C25.4469 22.828 25.2343 22.6172 24.9913 22.6172H15.577C15.3341 22.6172 15.1215 22.828 15.1215 23.0688C15.1215 23.3097 15.3341 23.5204 15.577 23.5204Z"/>
<path d="M15.577 21.2323H24.9913C25.2343 21.2323 25.4469 21.0215 25.4469 20.7806C25.4469 20.5398 25.2343 20.329 24.9913 20.329H15.577C15.3341 20.329 15.1215 20.5398 15.1215 20.7806C15.1215 21.0215 15.3341 21.2323 15.577 21.2323Z"/>
<path d="M10.961 10.0022C11.0521 10.1527 11.2039 10.2129 11.3557 10.2129C11.5076 10.2129 11.6594 10.1226 11.7505 10.0022L13.7549 6.6C13.8764 6.38925 13.8156 6.11828 13.603 5.96774C13.3905 5.84731 13.1171 5.90753 12.9653 6.11828L11.3557 8.85807L10.9002 8.07527C10.7787 7.86452 10.5054 7.77419 10.2625 7.92473C10.0499 8.04516 9.95879 8.31613 10.1106 8.55699L10.961 10.0022Z"/>
<path d="M15.577 9.67097H24.9913C25.2343 9.67097 25.4469 9.46022 25.4469 9.21935C25.4469 8.97849 25.2343 8.76774 24.9913 8.76774H15.577C15.3341 8.76774 15.1215 8.97849 15.1215 9.21935C15.1215 9.46022 15.3341 9.67097 15.577 9.67097Z"/>
<path d="M15.577 7.3828H24.9913C25.2343 7.3828 25.4469 7.17204 25.4469 6.93118C25.4469 6.69032 25.2343 6.47957 24.9913 6.47957H15.577C15.3341 6.47957 15.1215 6.69032 15.1215 6.93118C15.1215 7.17204 15.3341 7.3828 15.577 7.3828Z"/>
<path d="M10.961 16.9269C11.0521 17.0774 11.2039 17.1376 11.3557 17.1376C11.5076 17.1376 11.6594 17.0473 11.7505 16.9269L13.7549 13.5247C13.8764 13.314 13.8156 13.043 13.603 12.8925C13.3905 12.772 13.1171 12.8323 12.9653 13.043L11.3557 15.7828L10.9002 15C10.7787 14.7892 10.5054 14.6989 10.2625 14.8495C10.0499 14.9699 9.95879 15.2409 10.1106 15.4817L10.961 16.9269Z"/>
<path d="M15.577 16.5957H24.9913C25.2343 16.5957 25.4469 16.3849 25.4469 16.1441C25.4469 15.9032 25.2343 15.6925 24.9913 15.6925H15.577C15.3341 15.6925 15.1215 15.9032 15.1215 16.1441C15.1215 16.3849 15.3341 16.5957 15.577 16.5957Z"/>
<path d="M15.577 14.3075H24.9913C25.2343 14.3075 25.4469 14.0968 25.4469 13.8559C25.4469 13.6151 25.2343 13.4043 24.9913 13.4043H15.577C15.3341 13.4043 15.1215 13.6151 15.1215 13.8559C15.1215 14.0968 15.3341 14.3075 15.577 14.3075Z"/>
</mask>
<path d="M28.4837 1H7.01301C6.77006 1 6.55748 1.21075 6.55748 1.45161V13.0731H1.45553C1.21258 13.0731 1 13.2839 1 13.5247V25.7785C1 27.5548 2.4577 29 4.24946 29H25.7505C27.5423 29 29 27.5548 29 25.7785V1.45161C28.9393 1.21075 28.757 1 28.4837 1ZM1.91106 25.7785V13.9763H6.55748V25.7785C6.55748 27.043 5.52495 28.0968 4.21909 28.0968C2.91323 28.0968 1.91106 27.043 1.91106 25.7785ZM28.0282 25.7785C28.0282 27.043 26.9957 28.0968 25.6898 28.0968H6.46638C6.46638 28.0968 6.46638 28.0968 6.49675 28.0667C6.52711 28.0366 6.58785 27.9763 6.61822 27.9462C6.64859 27.9161 6.67896 27.886 6.70933 27.8559C6.7397 27.8258 6.77007 27.7656 6.80043 27.7355C6.8308 27.7054 6.86117 27.6753 6.89154 27.6151C6.92191 27.5548 6.95228 27.5247 6.98265 27.4645C7.01302 27.4344 7.04338 27.3742 7.04338 27.3441C7.07375 27.2839 7.10412 27.2538 7.13449 27.1936C7.16486 27.1634 7.16486 27.1032 7.19523 27.0731C7.2256 27.0129 7.2256 26.9527 7.25597 26.8925C7.28633 26.8624 7.28633 26.8022 7.3167 26.772C7.34707 26.7118 7.34707 26.6516 7.37744 26.5914C7.37744 26.5613 7.40781 26.5011 7.40781 26.471C7.40781 26.4108 7.43818 26.3204 7.43818 26.2602C7.43818 26.2301 7.43818 26.2 7.46855 26.1398C7.46855 26.0194 7.49892 25.929 7.49892 25.8086V1.90323H28.0282V25.7785Z" fill="#5858D1"/>
<path d="M10.961 23.8817C11.0521 24.0323 11.2039 24.0925 11.3557 24.0925C11.5076 24.0925 11.6594 24.0022 11.7505 23.8817L13.7549 20.4495C13.8764 20.2387 13.8156 19.9677 13.603 19.8172C13.3905 19.6968 13.1171 19.757 12.9653 19.9677L11.3557 22.7075L10.9002 21.9247C10.7787 21.714 10.5054 21.6237 10.2625 21.7742C10.0499 21.8946 9.95879 22.1656 10.1106 22.4065L10.961 23.8817Z" fill="#5858D1"/>
<path d="M15.577 23.5204H24.9913C25.2343 23.5204 25.4469 23.3097 25.4469 23.0688C25.4469 22.828 25.2343 22.6172 24.9913 22.6172H15.577C15.3341 22.6172 15.1215 22.828 15.1215 23.0688C15.1215 23.3097 15.3341 23.5204 15.577 23.5204Z" fill="#5858D1"/>
<path d="M15.577 21.2323H24.9913C25.2343 21.2323 25.4469 21.0215 25.4469 20.7806C25.4469 20.5398 25.2343 20.329 24.9913 20.329H15.577C15.3341 20.329 15.1215 20.5398 15.1215 20.7806C15.1215 21.0215 15.3341 21.2323 15.577 21.2323Z" fill="#5858D1"/>
<path d="M10.961 10.0022C11.0521 10.1527 11.2039 10.2129 11.3557 10.2129C11.5076 10.2129 11.6594 10.1226 11.7505 10.0022L13.7549 6.6C13.8764 6.38925 13.8156 6.11828 13.603 5.96774C13.3905 5.84731 13.1171 5.90753 12.9653 6.11828L11.3557 8.85807L10.9002 8.07527C10.7787 7.86452 10.5054 7.77419 10.2625 7.92473C10.0499 8.04516 9.95879 8.31613 10.1106 8.55699L10.961 10.0022Z" fill="#5858D1"/>
<path d="M15.577 9.67097H24.9913C25.2343 9.67097 25.4469 9.46022 25.4469 9.21935C25.4469 8.97849 25.2343 8.76774 24.9913 8.76774H15.577C15.3341 8.76774 15.1215 8.97849 15.1215 9.21935C15.1215 9.46022 15.3341 9.67097 15.577 9.67097Z" fill="#5858D1"/>
<path d="M15.577 7.3828H24.9913C25.2343 7.3828 25.4469 7.17204 25.4469 6.93118C25.4469 6.69032 25.2343 6.47957 24.9913 6.47957H15.577C15.3341 6.47957 15.1215 6.69032 15.1215 6.93118C15.1215 7.17204 15.3341 7.3828 15.577 7.3828Z" fill="#5858D1"/>
<path d="M10.961 16.9269C11.0521 17.0774 11.2039 17.1376 11.3557 17.1376C11.5076 17.1376 11.6594 17.0473 11.7505 16.9269L13.7549 13.5247C13.8764 13.314 13.8156 13.043 13.603 12.8925C13.3905 12.772 13.1171 12.8323 12.9653 13.043L11.3557 15.7828L10.9002 15C10.7787 14.7892 10.5054 14.6989 10.2625 14.8495C10.0499 14.9699 9.95879 15.2409 10.1106 15.4817L10.961 16.9269Z" fill="#5858D1"/>
<path d="M15.577 16.5957H24.9913C25.2343 16.5957 25.4469 16.3849 25.4469 16.1441C25.4469 15.9032 25.2343 15.6925 24.9913 15.6925H15.577C15.3341 15.6925 15.1215 15.9032 15.1215 16.1441C15.1215 16.3849 15.3341 16.5957 15.577 16.5957Z" fill="#5858D1"/>
<path d="M15.577 14.3075H24.9913C25.2343 14.3075 25.4469 14.0968 25.4469 13.8559C25.4469 13.6151 25.2343 13.4043 24.9913 13.4043H15.577C15.3341 13.4043 15.1215 13.6151 15.1215 13.8559C15.1215 14.0968 15.3341 14.3075 15.577 14.3075Z" fill="#5858D1"/>
<path d="M28.4837 1H7.01301C6.77006 1 6.55748 1.21075 6.55748 1.45161V13.0731H1.45553C1.21258 13.0731 1 13.2839 1 13.5247V25.7785C1 27.5548 2.4577 29 4.24946 29H25.7505C27.5423 29 29 27.5548 29 25.7785V1.45161C28.9393 1.21075 28.757 1 28.4837 1ZM1.91106 25.7785V13.9763H6.55748V25.7785C6.55748 27.043 5.52495 28.0968 4.21909 28.0968C2.91323 28.0968 1.91106 27.043 1.91106 25.7785ZM28.0282 25.7785C28.0282 27.043 26.9957 28.0968 25.6898 28.0968H6.46638C6.46638 28.0968 6.46638 28.0968 6.49675 28.0667C6.52711 28.0366 6.58785 27.9763 6.61822 27.9462C6.64859 27.9161 6.67896 27.886 6.70933 27.8559C6.7397 27.8258 6.77007 27.7656 6.80043 27.7355C6.8308 27.7054 6.86117 27.6753 6.89154 27.6151C6.92191 27.5548 6.95228 27.5247 6.98265 27.4645C7.01302 27.4344 7.04338 27.3742 7.04338 27.3441C7.07375 27.2839 7.10412 27.2538 7.13449 27.1936C7.16486 27.1634 7.16486 27.1032 7.19523 27.0731C7.2256 27.0129 7.2256 26.9527 7.25597 26.8925C7.28633 26.8624 7.28633 26.8022 7.3167 26.772C7.34707 26.7118 7.34707 26.6516 7.37744 26.5914C7.37744 26.5613 7.40781 26.5011 7.40781 26.471C7.40781 26.4108 7.43818 26.3204 7.43818 26.2602C7.43818 26.2301 7.43818 26.2 7.46855 26.1398C7.46855 26.0194 7.49892 25.929 7.49892 25.8086V1.90323H28.0282V25.7785Z" stroke="#5858D1" stroke-width="0.6" mask="url(#path-1-outside-1)"/>
<path d="M10.961 23.8817C11.0521 24.0323 11.2039 24.0925 11.3557 24.0925C11.5076 24.0925 11.6594 24.0022 11.7505 23.8817L13.7549 20.4495C13.8764 20.2387 13.8156 19.9677 13.603 19.8172C13.3905 19.6968 13.1171 19.757 12.9653 19.9677L11.3557 22.7075L10.9002 21.9247C10.7787 21.714 10.5054 21.6237 10.2625 21.7742C10.0499 21.8946 9.95879 22.1656 10.1106 22.4065L10.961 23.8817Z" stroke="#5858D1" stroke-width="0.6" mask="url(#path-1-outside-1)"/>
<path d="M15.577 23.5204H24.9913C25.2343 23.5204 25.4469 23.3097 25.4469 23.0688C25.4469 22.828 25.2343 22.6172 24.9913 22.6172H15.577C15.3341 22.6172 15.1215 22.828 15.1215 23.0688C15.1215 23.3097 15.3341 23.5204 15.577 23.5204Z" stroke="#5858D1" stroke-width="0.6" mask="url(#path-1-outside-1)"/>
<path d="M15.577 21.2323H24.9913C25.2343 21.2323 25.4469 21.0215 25.4469 20.7806C25.4469 20.5398 25.2343 20.329 24.9913 20.329H15.577C15.3341 20.329 15.1215 20.5398 15.1215 20.7806C15.1215 21.0215 15.3341 21.2323 15.577 21.2323Z" stroke="#5858D1" stroke-width="0.6" mask="url(#path-1-outside-1)"/>
<path d="M10.961 10.0022C11.0521 10.1527 11.2039 10.2129 11.3557 10.2129C11.5076 10.2129 11.6594 10.1226 11.7505 10.0022L13.7549 6.6C13.8764 6.38925 13.8156 6.11828 13.603 5.96774C13.3905 5.84731 13.1171 5.90753 12.9653 6.11828L11.3557 8.85807L10.9002 8.07527C10.7787 7.86452 10.5054 7.77419 10.2625 7.92473C10.0499 8.04516 9.95879 8.31613 10.1106 8.55699L10.961 10.0022Z" stroke="#5858D1" stroke-width="0.6" mask="url(#path-1-outside-1)"/>
<path d="M15.577 9.67097H24.9913C25.2343 9.67097 25.4469 9.46022 25.4469 9.21935C25.4469 8.97849 25.2343 8.76774 24.9913 8.76774H15.577C15.3341 8.76774 15.1215 8.97849 15.1215 9.21935C15.1215 9.46022 15.3341 9.67097 15.577 9.67097Z" stroke="#5858D1" stroke-width="0.6" mask="url(#path-1-outside-1)"/>
<path d="M15.577 7.3828H24.9913C25.2343 7.3828 25.4469 7.17204 25.4469 6.93118C25.4469 6.69032 25.2343 6.47957 24.9913 6.47957H15.577C15.3341 6.47957 15.1215 6.69032 15.1215 6.93118C15.1215 7.17204 15.3341 7.3828 15.577 7.3828Z" stroke="#5858D1" stroke-width="0.6" mask="url(#path-1-outside-1)"/>
<path d="M10.961 16.9269C11.0521 17.0774 11.2039 17.1376 11.3557 17.1376C11.5076 17.1376 11.6594 17.0473 11.7505 16.9269L13.7549 13.5247C13.8764 13.314 13.8156 13.043 13.603 12.8925C13.3905 12.772 13.1171 12.8323 12.9653 13.043L11.3557 15.7828L10.9002 15C10.7787 14.7892 10.5054 14.6989 10.2625 14.8495C10.0499 14.9699 9.95879 15.2409 10.1106 15.4817L10.961 16.9269Z" stroke="#5858D1" stroke-width="0.6" mask="url(#path-1-outside-1)"/>
<path d="M15.577 16.5957H24.9913C25.2343 16.5957 25.4469 16.3849 25.4469 16.1441C25.4469 15.9032 25.2343 15.6925 24.9913 15.6925H15.577C15.3341 15.6925 15.1215 15.9032 15.1215 16.1441C15.1215 16.3849 15.3341 16.5957 15.577 16.5957Z" stroke="#5858D1" stroke-width="0.6" mask="url(#path-1-outside-1)"/>
<path d="M15.577 14.3075H24.9913C25.2343 14.3075 25.4469 14.0968 25.4469 13.8559C25.4469 13.6151 25.2343 13.4043 24.9913 13.4043H15.577C15.3341 13.4043 15.1215 13.6151 15.1215 13.8559C15.1215 14.0968 15.3341 14.3075 15.577 14.3075Z" stroke="#5858D1" stroke-width="0.6" mask="url(#path-1-outside-1)"/>
</svg>
