<svg width="30" height="30" viewBox="0 0 30 30" fill="none" xmlns="http://www.w3.org/2000/svg">
<path d="M20.7105 15.0693C20.8441 15.0626 20.9812 15.0746 21.1183 15.1108C21.1184 15.1108 21.1185 15.1109 21.1186 15.1109L21.0803 15.2559C25.0484 16.2858 26.718 17.8817 27.7291 19.1569L20.7105 15.0693ZM20.7105 15.0693L20.8847 13.9344C22.4299 12.0456 23.4347 9.27219 23.4347 7.15591C23.4347 3.67835 20.6032 0.85 17.1227 0.85C13.6504 0.85 10.8253 3.67214 10.8189 7.14404L20.7105 15.0693ZM10.8242 7.19316C10.8242 7.19321 10.8242 7.19322 10.8242 7.19318L10.8242 7.19316ZM10.8242 7.19316C10.8242 7.19294 10.8239 7.19199 10.8236 7.19091L10.824 7.19255L10.8242 7.19301L10.8242 7.19313L10.8242 7.19316ZM10.8269 7.10349C10.8267 7.10402 10.8264 7.10485 10.8261 7.10576L10.8268 7.10376L10.8269 7.10349ZM10.8269 7.10349L10.827 7.10314L10.827 7.10297L10.8271 7.10291C10.8271 7.10277 10.827 7.10301 10.8269 7.10349ZM14.6359 4.87368L14.6355 4.87344C14.4492 4.73362 14.2057 4.70195 13.9879 4.78486L13.9878 4.78492C13.7505 4.87559 13.5695 5.09508 13.5202 5.34579L13.5202 5.34598C13.4385 5.76457 13.1707 6.0408 12.8389 6.22673C12.5724 6.37601 12.2711 6.46293 12.0105 6.51325C12.3279 3.97215 14.4981 1.99875 17.1227 1.99875C19.7901 1.99875 21.9869 4.03133 22.2536 6.62644C21.5858 6.66355 20.3632 6.68626 19.0009 6.49396C17.5247 6.28557 15.8991 5.82669 14.6359 4.87368ZM5.97141 21.7537V21.7541L5.97714 21.7537H7.80756C8.42649 21.7537 8.93028 22.2576 8.93028 22.8768V26.8781C8.93028 27.4974 8.42649 28.0013 7.80756 28.0013H3.12121C2.50228 28.0013 1.99848 27.4974 1.99848 26.8781V22.8768C1.99848 22.2576 2.50228 21.7537 3.12121 21.7537H5.97108H5.97141ZM27.7954 23.8524H10.0788V22.8768C10.0788 21.6241 9.06001 20.605 7.80756 20.605H6.7865C6.93386 20.3095 7.10791 20.0323 7.31104 19.7776L7.31131 19.7773C8.2201 18.6311 9.73617 17.181 13.4331 16.2217L13.4331 16.2217L13.4352 16.2211C13.56 16.1868 13.7087 16.2617 13.7617 16.4181L13.7621 16.4192C13.8876 16.7797 14.1451 17.2628 14.6696 17.6552C15.1949 18.0481 15.9752 18.3405 17.1291 18.3405C18.2828 18.3405 19.0631 18.0481 19.5886 17.6548C20.1132 17.262 20.3709 16.7782 20.4969 16.4163L20.4973 16.4153C20.5488 16.2636 20.6963 16.187 20.8263 16.2218L20.8273 16.2221C24.5218 17.181 26.0378 18.6311 26.9479 19.7789L26.9483 19.7794C27.6263 20.6271 28.0015 21.7246 28.0015 22.8698V23.646C28.0015 23.7631 27.9121 23.8524 27.7954 23.8524ZM7.08003 23.0261L4.59591 25.511L3.84854 24.7633C3.62423 24.539 3.26077 24.539 3.03647 24.7633C2.81219 24.9877 2.81219 25.3512 3.03647 25.5755L4.18988 26.7293C4.30197 26.8414 4.44916 26.8976 4.59591 26.8976C4.74266 26.8976 4.88985 26.8414 5.00195 26.7293L7.8921 23.8383C8.11637 23.6139 8.11637 23.2504 7.8921 23.0261C7.66779 22.8017 7.30433 22.8017 7.08003 23.0261ZM29.15 22.8698C29.15 21.4681 28.6876 20.1157 27.8464 19.0634L10.8187 7.1526C10.8187 7.15315 10.8187 7.15369 10.8187 7.15423C10.8187 7.15478 10.8187 7.15534 10.8187 7.15591C10.8187 9.27418 11.8255 12.0508 13.3732 13.9398L13.5465 15.0689C13.414 15.0624 13.2781 15.0745 13.1422 15.1104C9.13907 16.1491 7.44191 17.764 6.41227 19.0623C6.04295 19.5255 5.75136 20.0448 5.53304 20.605H3.12121C1.86876 20.605 0.85 21.6241 0.85 22.8768V26.8781C0.85 28.1309 1.86876 29.15 3.12121 29.15H7.80756C9.06001 29.15 10.0788 28.1309 10.0788 26.8781V25.0012H27.7954C28.5425 25.0012 29.15 24.3931 29.15 23.646V22.8698ZM10.8191 7.14343L10.8191 7.14371L10.8191 7.14343ZM17.1291 17.1917C15.8758 17.1917 15.1285 16.7829 14.8635 16.0805L14.7353 15.2449C15.4659 15.771 16.273 16.0926 17.1268 16.0926C17.982 16.0926 18.7905 15.7699 19.5222 15.2422L19.3931 16.0827C19.1254 16.7846 18.3789 17.1917 17.1291 17.1917ZM17.1268 14.9439C16.4934 14.9439 15.8683 14.6788 15.2781 14.2207C14.688 13.7625 14.1405 13.1168 13.6667 12.3724C12.7479 10.9289 12.1211 9.13783 11.993 7.68481C12.3501 7.63443 12.8217 7.52851 13.2713 7.30583C13.7405 7.07345 14.1923 6.71038 14.4588 6.14647C16.685 7.55688 19.5273 7.80696 21.2775 7.80696C21.6582 7.80696 21.9883 7.79507 22.2513 7.78036C22.1036 9.22711 21.4758 10.9874 20.5661 12.4048C19.6141 13.8882 18.3885 14.9439 17.1268 14.9439ZM20.3552 16.367C20.4296 16.1482 20.6512 16.0197 20.865 16.0769L13.9038 16.3699C14.1403 17.0496 14.8738 18.1905 17.1291 18.1905C19.3841 18.1905 20.1176 17.0496 20.3552 16.367Z" fill="#5858D1" stroke="#5858D1" stroke-width="0.3"/>
</svg>
