<svg width="30" height="29" viewBox="0 0 30 29" fill="none" xmlns="http://www.w3.org/2000/svg">
<mask id="path-1-outside-1" maskUnits="userSpaceOnUse" x="0" y="-0.0390625" width="30" height="29" fill="black">
<rect fill="white" y="-0.0390625" width="30" height="29"/>
<path d="M28.4837 0.960938H7.01301C6.77006 0.960938 6.55748 1.16578 6.55748 1.39988V12.6952H1.45553C1.21258 12.6952 1 12.9001 1 13.1342V25.044C1 26.7705 2.4577 28.1751 4.24946 28.1751H25.7505C27.5423 28.1751 29 26.7705 29 25.044V1.39988C28.9393 1.16578 28.757 0.960938 28.4837 0.960938ZM1.91106 25.044V13.5731H6.55748V25.044C6.55748 26.2731 5.52495 27.2972 4.21909 27.2972C2.91323 27.2972 1.91106 26.2731 1.91106 25.044ZM28.0282 25.044C28.0282 26.2731 26.9957 27.2972 25.6898 27.2972H6.46638C6.46638 27.2972 6.46638 27.2972 6.49675 27.268C6.52711 27.2387 6.58785 27.1802 6.61822 27.1509C6.64859 27.1217 6.67896 27.0924 6.70933 27.0631C6.7397 27.0339 6.77007 26.9754 6.80043 26.9461C6.8308 26.9168 6.86117 26.8876 6.89154 26.829C6.92191 26.7705 6.95228 26.7413 6.98265 26.6827C7.01302 26.6535 7.04338 26.5949 7.04338 26.5657C7.07375 26.5072 7.10412 26.4779 7.13449 26.4194C7.16486 26.3901 7.16486 26.3316 7.19523 26.3023C7.2256 26.2438 7.2256 26.1853 7.25597 26.1267C7.28633 26.0975 7.28633 26.039 7.3167 26.0097C7.34707 25.9512 7.34707 25.8926 7.37744 25.8341C7.37744 25.8049 7.40781 25.7463 7.40781 25.7171C7.40781 25.6585 7.43818 25.5708 7.43818 25.5122C7.43818 25.483 7.43818 25.4537 7.46855 25.3952C7.46855 25.2781 7.49892 25.1903 7.49892 25.0733V1.83881H28.0282V25.044Z"/>
<path d="M10.961 23.2005C11.0521 23.3468 11.2039 23.4053 11.3557 23.4053C11.5076 23.4053 11.6594 23.3175 11.7505 23.2005L13.7549 19.8646C13.8764 19.6597 13.8156 19.3964 13.603 19.25C13.3905 19.133 13.1171 19.1915 12.9653 19.3964L11.3557 22.0592L10.9002 21.2984C10.7787 21.0936 10.5054 21.0058 10.2625 21.1521C10.0499 21.2692 9.95879 21.5325 10.1106 21.7666L10.961 23.2005Z"/>
<path d="M15.577 22.8493H24.9913C25.2343 22.8493 25.4469 22.6445 25.4469 22.4104C25.4469 22.1763 25.2343 21.9715 24.9913 21.9715H15.577C15.3341 21.9715 15.1215 22.1763 15.1215 22.4104C15.1215 22.6445 15.3341 22.8493 15.577 22.8493Z"/>
<path d="M15.577 20.6254H24.9913C25.2343 20.6254 25.4469 20.4205 25.4469 20.1864C25.4469 19.9523 25.2343 19.7475 24.9913 19.7475H15.577C15.3341 19.7475 15.1215 19.9523 15.1215 20.1864C15.1215 20.4205 15.3341 20.6254 15.577 20.6254Z"/>
<path d="M10.961 9.71044C11.0521 9.85676 11.2039 9.91528 11.3557 9.91528C11.5076 9.91528 11.6594 9.82749 11.7505 9.71044L13.7549 6.40377C13.8764 6.19894 13.8156 5.93557 13.603 5.78926C13.3905 5.67221 13.1171 5.73073 12.9653 5.93557L11.3557 8.59847L10.9002 7.83764C10.7787 7.6328 10.5054 7.54501 10.2625 7.69133C10.0499 7.80838 9.95879 8.07174 10.1106 8.30584L10.961 9.71044Z"/>
<path d="M15.577 9.38855H24.9913C25.2343 9.38855 25.4469 9.18372 25.4469 8.94962C25.4469 8.71552 25.2343 8.51068 24.9913 8.51068H15.577C15.3341 8.51068 15.1215 8.71552 15.1215 8.94962C15.1215 9.18372 15.3341 9.38855 15.577 9.38855Z"/>
<path d="M15.577 7.1646H24.9913C25.2343 7.1646 25.4469 6.95976 25.4469 6.72566C25.4469 6.49156 25.2343 6.28672 24.9913 6.28672H15.577C15.3341 6.28672 15.1215 6.49156 15.1215 6.72566C15.1215 6.95976 15.3341 7.1646 15.577 7.1646Z"/>
<path d="M10.961 16.4408C11.0521 16.5871 11.2039 16.6457 11.3557 16.6457C11.5076 16.6457 11.6594 16.5579 11.7505 16.4408L13.7549 13.1342C13.8764 12.9293 13.8156 12.666 13.603 12.5196C13.3905 12.4026 13.1171 12.4611 12.9653 12.666L11.3557 15.3289L10.9002 14.568C10.7787 14.3632 10.5054 14.2754 10.2625 14.4217C10.0499 14.5388 9.95879 14.8021 10.1106 15.0362L10.961 16.4408Z"/>
<path d="M15.577 16.1189H24.9913C25.2343 16.1189 25.4469 15.9141 25.4469 15.68C25.4469 15.4459 25.2343 15.2411 24.9913 15.2411H15.577C15.3341 15.2411 15.1215 15.4459 15.1215 15.68C15.1215 15.9141 15.3341 16.1189 15.577 16.1189Z"/>
<path d="M15.577 13.895H24.9913C25.2343 13.895 25.4469 13.6902 25.4469 13.4561C25.4469 13.222 25.2343 13.0171 24.9913 13.0171H15.577C15.3341 13.0171 15.1215 13.222 15.1215 13.4561C15.1215 13.6902 15.3341 13.895 15.577 13.895Z"/>
</mask>
<path d="M28.4837 0.960938H7.01301C6.77006 0.960938 6.55748 1.16578 6.55748 1.39988V12.6952H1.45553C1.21258 12.6952 1 12.9001 1 13.1342V25.044C1 26.7705 2.4577 28.1751 4.24946 28.1751H25.7505C27.5423 28.1751 29 26.7705 29 25.044V1.39988C28.9393 1.16578 28.757 0.960938 28.4837 0.960938ZM1.91106 25.044V13.5731H6.55748V25.044C6.55748 26.2731 5.52495 27.2972 4.21909 27.2972C2.91323 27.2972 1.91106 26.2731 1.91106 25.044ZM28.0282 25.044C28.0282 26.2731 26.9957 27.2972 25.6898 27.2972H6.46638C6.46638 27.2972 6.46638 27.2972 6.49675 27.268C6.52711 27.2387 6.58785 27.1802 6.61822 27.1509C6.64859 27.1217 6.67896 27.0924 6.70933 27.0631C6.7397 27.0339 6.77007 26.9754 6.80043 26.9461C6.8308 26.9168 6.86117 26.8876 6.89154 26.829C6.92191 26.7705 6.95228 26.7413 6.98265 26.6827C7.01302 26.6535 7.04338 26.5949 7.04338 26.5657C7.07375 26.5072 7.10412 26.4779 7.13449 26.4194C7.16486 26.3901 7.16486 26.3316 7.19523 26.3023C7.2256 26.2438 7.2256 26.1853 7.25597 26.1267C7.28633 26.0975 7.28633 26.039 7.3167 26.0097C7.34707 25.9512 7.34707 25.8926 7.37744 25.8341C7.37744 25.8049 7.40781 25.7463 7.40781 25.7171C7.40781 25.6585 7.43818 25.5708 7.43818 25.5122C7.43818 25.483 7.43818 25.4537 7.46855 25.3952C7.46855 25.2781 7.49892 25.1903 7.49892 25.0733V1.83881H28.0282V25.044Z" fill="#5858D1"/>
<path d="M10.961 23.2005C11.0521 23.3468 11.2039 23.4053 11.3557 23.4053C11.5076 23.4053 11.6594 23.3175 11.7505 23.2005L13.7549 19.8646C13.8764 19.6597 13.8156 19.3964 13.603 19.25C13.3905 19.133 13.1171 19.1915 12.9653 19.3964L11.3557 22.0592L10.9002 21.2984C10.7787 21.0936 10.5054 21.0058 10.2625 21.1521C10.0499 21.2692 9.95879 21.5325 10.1106 21.7666L10.961 23.2005Z" fill="#5858D1"/>
<path d="M15.577 22.8493H24.9913C25.2343 22.8493 25.4469 22.6445 25.4469 22.4104C25.4469 22.1763 25.2343 21.9715 24.9913 21.9715H15.577C15.3341 21.9715 15.1215 22.1763 15.1215 22.4104C15.1215 22.6445 15.3341 22.8493 15.577 22.8493Z" fill="#5858D1"/>
<path d="M15.577 20.6254H24.9913C25.2343 20.6254 25.4469 20.4205 25.4469 20.1864C25.4469 19.9523 25.2343 19.7475 24.9913 19.7475H15.577C15.3341 19.7475 15.1215 19.9523 15.1215 20.1864C15.1215 20.4205 15.3341 20.6254 15.577 20.6254Z" fill="#5858D1"/>
<path d="M10.961 9.71044C11.0521 9.85676 11.2039 9.91528 11.3557 9.91528C11.5076 9.91528 11.6594 9.82749 11.7505 9.71044L13.7549 6.40377C13.8764 6.19894 13.8156 5.93557 13.603 5.78926C13.3905 5.67221 13.1171 5.73073 12.9653 5.93557L11.3557 8.59847L10.9002 7.83764C10.7787 7.6328 10.5054 7.54501 10.2625 7.69133C10.0499 7.80838 9.95879 8.07174 10.1106 8.30584L10.961 9.71044Z" fill="#5858D1"/>
<path d="M15.577 9.38855H24.9913C25.2343 9.38855 25.4469 9.18372 25.4469 8.94962C25.4469 8.71552 25.2343 8.51068 24.9913 8.51068H15.577C15.3341 8.51068 15.1215 8.71552 15.1215 8.94962C15.1215 9.18372 15.3341 9.38855 15.577 9.38855Z" fill="#5858D1"/>
<path d="M15.577 7.1646H24.9913C25.2343 7.1646 25.4469 6.95976 25.4469 6.72566C25.4469 6.49156 25.2343 6.28672 24.9913 6.28672H15.577C15.3341 6.28672 15.1215 6.49156 15.1215 6.72566C15.1215 6.95976 15.3341 7.1646 15.577 7.1646Z" fill="#5858D1"/>
<path d="M10.961 16.4408C11.0521 16.5871 11.2039 16.6457 11.3557 16.6457C11.5076 16.6457 11.6594 16.5579 11.7505 16.4408L13.7549 13.1342C13.8764 12.9293 13.8156 12.666 13.603 12.5196C13.3905 12.4026 13.1171 12.4611 12.9653 12.666L11.3557 15.3289L10.9002 14.568C10.7787 14.3632 10.5054 14.2754 10.2625 14.4217C10.0499 14.5388 9.95879 14.8021 10.1106 15.0362L10.961 16.4408Z" fill="#5858D1"/>
<path d="M15.577 16.1189H24.9913C25.2343 16.1189 25.4469 15.9141 25.4469 15.68C25.4469 15.4459 25.2343 15.2411 24.9913 15.2411H15.577C15.3341 15.2411 15.1215 15.4459 15.1215 15.68C15.1215 15.9141 15.3341 16.1189 15.577 16.1189Z" fill="#5858D1"/>
<path d="M15.577 13.895H24.9913C25.2343 13.895 25.4469 13.6902 25.4469 13.4561C25.4469 13.222 25.2343 13.0171 24.9913 13.0171H15.577C15.3341 13.0171 15.1215 13.222 15.1215 13.4561C15.1215 13.6902 15.3341 13.895 15.577 13.895Z" fill="#5858D1"/>
<path d="M28.4837 0.960938H7.01301C6.77006 0.960938 6.55748 1.16578 6.55748 1.39988V12.6952H1.45553C1.21258 12.6952 1 12.9001 1 13.1342V25.044C1 26.7705 2.4577 28.1751 4.24946 28.1751H25.7505C27.5423 28.1751 29 26.7705 29 25.044V1.39988C28.9393 1.16578 28.757 0.960938 28.4837 0.960938ZM1.91106 25.044V13.5731H6.55748V25.044C6.55748 26.2731 5.52495 27.2972 4.21909 27.2972C2.91323 27.2972 1.91106 26.2731 1.91106 25.044ZM28.0282 25.044C28.0282 26.2731 26.9957 27.2972 25.6898 27.2972H6.46638C6.46638 27.2972 6.46638 27.2972 6.49675 27.268C6.52711 27.2387 6.58785 27.1802 6.61822 27.1509C6.64859 27.1217 6.67896 27.0924 6.70933 27.0631C6.7397 27.0339 6.77007 26.9754 6.80043 26.9461C6.8308 26.9168 6.86117 26.8876 6.89154 26.829C6.92191 26.7705 6.95228 26.7413 6.98265 26.6827C7.01302 26.6535 7.04338 26.5949 7.04338 26.5657C7.07375 26.5072 7.10412 26.4779 7.13449 26.4194C7.16486 26.3901 7.16486 26.3316 7.19523 26.3023C7.2256 26.2438 7.2256 26.1853 7.25597 26.1267C7.28633 26.0975 7.28633 26.039 7.3167 26.0097C7.34707 25.9512 7.34707 25.8926 7.37744 25.8341C7.37744 25.8049 7.40781 25.7463 7.40781 25.7171C7.40781 25.6585 7.43818 25.5708 7.43818 25.5122C7.43818 25.483 7.43818 25.4537 7.46855 25.3952C7.46855 25.2781 7.49892 25.1903 7.49892 25.0733V1.83881H28.0282V25.044Z" stroke="#5858D1" stroke-width="0.6" mask="url(#path-1-outside-1)"/>
<path d="M10.961 23.2005C11.0521 23.3468 11.2039 23.4053 11.3557 23.4053C11.5076 23.4053 11.6594 23.3175 11.7505 23.2005L13.7549 19.8646C13.8764 19.6597 13.8156 19.3964 13.603 19.25C13.3905 19.133 13.1171 19.1915 12.9653 19.3964L11.3557 22.0592L10.9002 21.2984C10.7787 21.0936 10.5054 21.0058 10.2625 21.1521C10.0499 21.2692 9.95879 21.5325 10.1106 21.7666L10.961 23.2005Z" stroke="#5858D1" stroke-width="0.6" mask="url(#path-1-outside-1)"/>
<path d="M15.577 22.8493H24.9913C25.2343 22.8493 25.4469 22.6445 25.4469 22.4104C25.4469 22.1763 25.2343 21.9715 24.9913 21.9715H15.577C15.3341 21.9715 15.1215 22.1763 15.1215 22.4104C15.1215 22.6445 15.3341 22.8493 15.577 22.8493Z" stroke="#5858D1" stroke-width="0.6" mask="url(#path-1-outside-1)"/>
<path d="M15.577 20.6254H24.9913C25.2343 20.6254 25.4469 20.4205 25.4469 20.1864C25.4469 19.9523 25.2343 19.7475 24.9913 19.7475H15.577C15.3341 19.7475 15.1215 19.9523 15.1215 20.1864C15.1215 20.4205 15.3341 20.6254 15.577 20.6254Z" stroke="#5858D1" stroke-width="0.6" mask="url(#path-1-outside-1)"/>
<path d="M10.961 9.71044C11.0521 9.85676 11.2039 9.91528 11.3557 9.91528C11.5076 9.91528 11.6594 9.82749 11.7505 9.71044L13.7549 6.40377C13.8764 6.19894 13.8156 5.93557 13.603 5.78926C13.3905 5.67221 13.1171 5.73073 12.9653 5.93557L11.3557 8.59847L10.9002 7.83764C10.7787 7.6328 10.5054 7.54501 10.2625 7.69133C10.0499 7.80838 9.95879 8.07174 10.1106 8.30584L10.961 9.71044Z" stroke="#5858D1" stroke-width="0.6" mask="url(#path-1-outside-1)"/>
<path d="M15.577 9.38855H24.9913C25.2343 9.38855 25.4469 9.18372 25.4469 8.94962C25.4469 8.71552 25.2343 8.51068 24.9913 8.51068H15.577C15.3341 8.51068 15.1215 8.71552 15.1215 8.94962C15.1215 9.18372 15.3341 9.38855 15.577 9.38855Z" stroke="#5858D1" stroke-width="0.6" mask="url(#path-1-outside-1)"/>
<path d="M15.577 7.1646H24.9913C25.2343 7.1646 25.4469 6.95976 25.4469 6.72566C25.4469 6.49156 25.2343 6.28672 24.9913 6.28672H15.577C15.3341 6.28672 15.1215 6.49156 15.1215 6.72566C15.1215 6.95976 15.3341 7.1646 15.577 7.1646Z" stroke="#5858D1" stroke-width="0.6" mask="url(#path-1-outside-1)"/>
<path d="M10.961 16.4408C11.0521 16.5871 11.2039 16.6457 11.3557 16.6457C11.5076 16.6457 11.6594 16.5579 11.7505 16.4408L13.7549 13.1342C13.8764 12.9293 13.8156 12.666 13.603 12.5196C13.3905 12.4026 13.1171 12.4611 12.9653 12.666L11.3557 15.3289L10.9002 14.568C10.7787 14.3632 10.5054 14.2754 10.2625 14.4217C10.0499 14.5388 9.95879 14.8021 10.1106 15.0362L10.961 16.4408Z" stroke="#5858D1" stroke-width="0.6" mask="url(#path-1-outside-1)"/>
<path d="M15.577 16.1189H24.9913C25.2343 16.1189 25.4469 15.9141 25.4469 15.68C25.4469 15.4459 25.2343 15.2411 24.9913 15.2411H15.577C15.3341 15.2411 15.1215 15.4459 15.1215 15.68C15.1215 15.9141 15.3341 16.1189 15.577 16.1189Z" stroke="#5858D1" stroke-width="0.6" mask="url(#path-1-outside-1)"/>
<path d="M15.577 13.895H24.9913C25.2343 13.895 25.4469 13.6902 25.4469 13.4561C25.4469 13.222 25.2343 13.0171 24.9913 13.0171H15.577C15.3341 13.0171 15.1215 13.222 15.1215 13.4561C15.1215 13.6902 15.3341 13.895 15.577 13.895Z" stroke="#5858D1" stroke-width="0.6" mask="url(#path-1-outside-1)"/>
</svg>
