<svg width="28" height="28" viewBox="0 0 28 28" fill="none" xmlns="http://www.w3.org/2000/svg">
<path d="M27.7565 21.5219L24.2575 17.6183C24.1837 17.5219 24.0929 17.4436 23.9907 17.3883C23.8886 17.3331 23.7773 17.302 23.6639 17.2971C23.5506 17.2922 23.4375 17.3136 23.3318 17.3599C23.2262 17.4062 23.1302 17.4764 23.05 17.5661C22.9698 17.6558 22.907 17.7631 22.8656 17.8813C22.8242 17.9994 22.8051 18.1259 22.8095 18.2527C22.8139 18.3795 22.8416 18.5039 22.8911 18.6181C22.9405 18.7323 23.0105 18.8339 23.0966 18.9164L25.1878 21.2549H19.7623V1.92068C19.7623 1.6765 19.6756 1.44232 19.5212 1.26966C19.3668 1.097 19.1574 1 18.939 1H15.6459C15.4275 1 15.2181 1.097 15.0637 1.26966C14.9093 1.44232 14.8226 1.6765 14.8226 1.92068V6.52408H12.3527C12.1344 6.52408 11.925 6.62108 11.7706 6.79374C11.6162 6.9664 11.5294 7.20058 11.5294 7.44476V10.2068H9.05956C8.84121 10.2068 8.6318 10.3038 8.4774 10.4765C8.32301 10.6491 8.23627 10.8833 8.23627 11.1275V21.2549H4.94311V4.61827L7.23185 7.17776C7.38688 7.34991 7.59671 7.44613 7.81518 7.44527C8.03365 7.4444 8.24287 7.34652 8.39681 7.17315C8.55075 6.99979 8.63679 6.76514 8.63602 6.52082C8.63525 6.27651 8.54772 6.04254 8.39269 5.87039L4.94311 1.96671C4.78885 1.79524 4.58019 1.69899 4.36269 1.69899C4.14519 1.69899 3.93652 1.79524 3.78227 1.96671L0.242123 5.87039C0.0870942 6.04376 -3.26698e-09 6.2789 0 6.52408C3.26698e-09 6.76925 0.0870942 7.00439 0.242123 7.17776C0.397151 7.35113 0.607415 7.44852 0.826659 7.44852C1.0459 7.44852 1.25617 7.35113 1.41119 7.17776L3.29653 5.0602V22.1756C3.29653 22.4198 3.38327 22.654 3.53766 22.8266C3.69206 22.9993 3.90147 23.0963 4.11982 23.0963H25.1878L23.0966 25.4256C23.0195 25.5112 22.9582 25.613 22.9164 25.7252C22.8746 25.8374 22.8531 25.9578 22.8531 26.0793C22.8531 26.2008 22.8746 26.3212 22.9164 26.4334C22.9582 26.5456 23.0195 26.6474 23.0966 26.733C23.1736 26.8183 23.2648 26.8858 23.3651 26.9316C23.4654 26.9775 23.5728 27.0007 23.6812 27C23.8972 26.999 24.1041 26.9031 24.2575 26.733L27.7565 22.8293C27.8336 22.7437 27.8949 22.6419 27.9367 22.5297C27.9785 22.4175 28 22.2972 28 22.1756C28 22.0541 27.9785 21.9337 27.9367 21.8216C27.8949 21.7094 27.8336 21.6075 27.7565 21.5219ZM11.5294 21.2549H9.88285V12.0482H11.5294V21.2549ZM14.8226 21.2549H13.176V8.36543H14.8226V21.2549ZM18.1157 21.2549H16.4692V2.84136H18.1157V21.2549Z" fill="#5858D1"/>
</svg>
