<svg width="30" height="30" viewBox="0 0 30 30" fill="none" xmlns="http://www.w3.org/2000/svg">
<path d="M9.98755 23.5088L9.98732 23.5085L6.04042 18.4642C6.04038 18.4641 6.04035 18.4641 6.04031 18.464C5.76509 18.1148 5.76513 17.5945 6.04042 17.2453L6.04066 17.245L9.98755 12.2789C9.98762 12.2788 9.98769 12.2787 9.98775 12.2786L9.98779 12.2786L10.0661 12.3408L9.98755 23.5088ZM9.98755 23.5088C10.1262 23.6846 10.3075 23.7816 10.4978 23.7816M9.98755 23.5088L10.4978 23.7816M10.4978 23.7816C10.6881 23.7816 10.8694 23.6846 11.008 23.5088M10.4978 23.7816L11.008 23.5088M11.008 23.5088C11.2833 23.1597 11.2834 22.6394 11.0082 22.2902M11.008 23.5088L11.0082 22.2902M11.0082 22.2902C11.0081 22.2902 11.0081 22.2901 11.008 22.29M11.0082 22.2902L11.008 22.29M11.008 22.29L7.54145 17.8553L11.008 22.29ZM20.0127 12.2401L20.0124 12.2398C19.8738 12.064 19.6925 11.967 19.5022 11.967C19.3119 11.967 19.1306 12.064 18.992 12.2398C18.7166 12.5889 18.7166 13.1094 18.992 13.4586L22.4586 17.8547L18.992 22.2509C18.7166 22.6001 18.7166 23.1597 18.992 23.5088C19.1306 23.6846 19.3119 23.7816 19.5022 23.7816C19.6925 23.7816 19.8738 23.6846 20.0124 23.5088L23.9596 18.5033C24.2349 18.1541 24.2349 17.6336 23.9596 17.2844L20.0127 12.2401ZM13.5185 23.2534L13.5185 23.2534L13.5193 23.2514L17.7748 13.2402L17.7749 13.2403L17.7758 13.2378C17.9412 12.8185 17.8518 12.2904 17.4897 12.0608C17.3117 11.948 17.1101 11.9225 16.9283 11.9875C16.7472 12.0523 16.597 12.2028 16.511 12.4202L12.2567 22.4675C12.0559 22.8944 12.1829 23.4168 12.5355 23.6451C12.6544 23.7426 12.7766 23.7425 12.8669 23.7425H12.8722C13.1389 23.7425 13.3843 23.5512 13.5185 23.2534ZM25.6079 0.9H4.39207C2.43495 0.9 0.9 2.88442 0.9 5.30168V24.6983C0.9 27.1156 2.43495 29.1 4.39207 29.1H25.6079C27.5651 29.1 29.1 27.1156 29.1 24.6983V5.30168C29.1 2.92416 27.5656 0.9 25.6079 0.9ZM27.6665 24.6983C27.6665 26.1917 26.7345 27.3358 25.6079 27.3358H4.39207C3.26549 27.3358 2.33348 26.1917 2.33348 24.6983V8.68659H27.6665V24.6983ZM27.6665 6.92235H2.33348V5.30168C2.33348 3.80832 3.26549 2.66425 4.39207 2.66425H25.6079C26.7345 2.66425 27.6665 3.80832 27.6665 5.30168V6.92235ZM4.11454 6.26201C4.76965 6.26201 5.263 5.59851 5.263 4.8324C5.263 4.06629 4.76965 3.40279 4.11454 3.40279C3.45943 3.40279 2.96608 4.06629 2.96608 4.8324C2.96608 5.59851 3.45943 6.26201 4.11454 6.26201ZM7.29075 6.26201C7.94586 6.26201 8.43921 5.59851 8.43921 4.8324C8.43921 4.06629 7.94586 3.40279 7.29075 3.40279C6.63564 3.40279 6.14229 4.06629 6.14229 4.8324C6.14229 5.59851 6.63564 6.26201 7.29075 6.26201ZM10.4978 6.26201C11.1529 6.26201 11.6463 5.59851 11.6463 4.8324C11.6463 4.06629 11.1529 3.40279 10.4978 3.40279C9.84269 3.40279 9.34934 4.06629 9.34934 4.8324C9.34934 5.59851 9.84269 6.26201 10.4978 6.26201Z" fill="#5858D1" stroke="#5858D1" stroke-width="0.2"/>
</svg>
