<svg width="28" height="28" viewBox="0 0 28 28" fill="none" xmlns="http://www.w3.org/2000/svg">
<path d="M9.3952 22.9997C10.9679 22.9997 12.2429 21.6955 12.2429 20.0867C12.2429 18.4778 10.9679 17.1736 9.3952 17.1736C7.82245 17.1736 6.54749 18.4778 6.54749 20.0867C6.54749 21.6955 7.82245 22.9997 9.3952 22.9997Z" fill="#5858D1"/>
<path d="M13.0277 17.1736C12.6689 17.1736 12.3326 17.2424 12.0187 17.3571C12.2429 17.5865 12.4447 17.8617 12.6241 18.137C12.7586 18.1141 12.8932 18.0911 13.0277 18.0911C14.104 18.0911 14.9785 18.9857 14.9785 20.0867C14.9785 21.1876 14.104 22.0822 13.0277 22.0822C12.8932 22.0822 12.7362 22.0593 12.6241 22.0363C12.4671 22.3116 12.2653 22.5868 12.0187 22.8162C12.3326 22.9309 12.6689 22.9997 13.0277 22.9997C14.5973 22.9997 15.8754 21.6923 15.8754 20.0867C15.8754 18.481 14.5973 17.1736 13.0277 17.1736Z" fill="#5858D1"/>
<path d="M18.7904 12.1733H3.63251C1.61445 12.1733 0 13.8477 0 15.8891V24.2842C0 26.3485 1.63687 28 3.63251 28H18.8128C20.8309 28 22.4453 26.3256 22.4453 24.2842V15.8891C22.4453 13.8477 20.8085 12.1733 18.7904 12.1733ZM20.6066 24.2842C20.6066 25.3163 19.7994 26.1421 18.7904 26.1421H3.63251C2.62348 26.1421 1.81625 25.3163 1.81625 24.2842V15.8891C1.81625 14.857 2.62348 14.0312 3.63251 14.0312H18.8128C19.8218 14.0312 20.6291 14.857 20.6291 15.8891V24.2842H20.6066Z" fill="#5858D1"/>
<path d="M24.8894 2.26442L9.86608 0.0395122C7.87044 -0.258672 6.03176 1.16344 5.74026 3.20485L4.66396 10.7741H6.50264L7.04079 7.05831L25.6518 9.81077L24.9791 14.5358C24.8894 15.2469 24.4185 15.7974 23.8131 16.0268V17.9535C25.3155 17.6782 26.5711 16.4396 26.7954 14.8111L27.9614 6.50781C28.2529 4.44346 26.8626 2.56261 24.8894 2.26442ZM26.1675 6.20963L26.0554 6.92068L7.4444 4.16821L7.55652 3.45716C7.69105 2.44792 8.63282 1.73687 9.61942 1.87449L24.6428 4.0994C25.607 4.25996 26.3021 5.20039 26.1675 6.20963Z" fill="#5858D1"/>
</svg>
