<svg width="28" height="30" viewBox="0 0 28 30" fill="none" xmlns="http://www.w3.org/2000/svg">
<path d="M8.73863 9.33087C8.73863 9.51388 8.64695 9.67642 8.50712 9.77462C8.50744 9.72491 8.50813 9.68181 8.51037 9.63624L8.51041 9.63625L8.5105 9.6327C8.51497 9.45769 8.44041 9.31771 8.32595 9.22445C8.21537 9.13435 8.07307 9.09152 7.93689 9.08877C7.80071 9.08602 7.65624 9.12308 7.54204 9.21105C7.42359 9.30228 7.34634 9.44233 7.34538 9.62038V9.62119C7.34538 9.69814 7.34519 9.75849 7.34493 9.8061L6.62055 9.53417C6.62055 9.53417 6.62055 9.53416 6.62054 9.53416C6.4227 9.45988 6.24595 9.55421 6.13648 9.67549C6.02752 9.79621 5.95683 9.96926 5.95683 10.1358C5.95683 10.3151 6.03816 10.4478 6.15076 10.5432C6.2573 10.6335 6.39361 10.6924 6.51564 10.7376L6.51568 10.7377L7.35702 11.0496V11.4064C7.35702 11.7441 7.6302 12.0176 7.96802 12.0176C8.3057 12.0176 8.57934 11.7442 8.57934 11.4064V11.0469C9.36806 10.8724 9.96287 10.1737 9.96287 9.33109C9.96287 8.35829 9.1715 7.56685 8.19873 7.56685H7.73741C7.43929 7.56685 7.1957 7.32362 7.1957 7.02503C7.1957 6.83933 7.28998 6.67474 7.43328 6.57702C7.43413 6.60659 7.43512 6.63636 7.43614 6.66533C7.43735 6.69968 7.4386 6.73305 7.43979 6.76445C7.44281 6.84471 7.44535 6.91207 7.44533 6.94994L7.44537 6.95234C7.44809 7.12229 7.52607 7.2542 7.64187 7.33852C7.75309 7.4195 7.89219 7.45232 8.0223 7.44893C8.15244 7.44553 8.28885 7.40553 8.39557 7.32194C8.50625 7.23525 8.58128 7.10343 8.57727 6.93702L8.57724 6.9361C8.57525 6.87036 8.57737 6.78404 8.57967 6.69072C8.58016 6.67084 8.58065 6.65064 8.58112 6.63026C8.58184 6.59867 8.58251 6.56628 8.58288 6.5342L9.25931 6.72615C9.25932 6.72615 9.25932 6.72616 9.25933 6.72616C9.45246 6.78098 9.623 6.69436 9.73317 6.57439C9.84224 6.45562 9.91128 6.28707 9.91128 6.12064C9.91128 5.94441 9.83426 5.80731 9.72198 5.70815C9.61401 5.61279 9.47503 5.55316 9.3414 5.51507L9.34138 5.51507L8.57763 5.29744V4.94945C8.57763 4.61161 8.30398 4.33825 7.96631 4.33825C7.62864 4.33825 7.35499 4.61162 7.35499 4.94946V5.309C6.56626 5.48348 5.97146 6.18235 5.97146 7.02492C5.97146 7.99773 6.76284 8.78905 7.7356 8.78905H8.19691C8.49504 8.78905 8.73863 9.03226 8.73863 9.33087ZM12.9167 10.1833H12.9167C12.5114 10.1834 12.1834 10.5114 12.1834 10.9166C12.1834 11.3218 12.5114 11.65 12.9167 11.65H19.9167C20.322 11.65 20.6501 11.3219 20.6501 10.9166C20.6501 10.5113 20.3219 10.1833 19.9167 10.1833H12.9167ZM5.3333 0.85C3.96422 0.85 2.85 1.96364 2.85 3.3334V26.6667C2.85 28.0364 3.96429 29.15 5.3334 29.15H21.6667C23.0358 29.15 24.15 28.0364 24.15 26.6666V7.41659C24.15 7.22177 24.0726 7.03566 23.9352 6.89824L18.1018 1.06483C17.9643 0.927393 17.7782 0.85 17.5833 0.85H5.3333ZM5.3334 2.3167H16.85V5.6667C16.85 7.03643 17.9643 8.15 19.3334 8.15H22.6834V26.6666C22.6834 27.2269 22.2275 27.6833 21.6667 27.6833H5.3334C4.77257 27.6833 4.3167 27.2269 4.3167 26.6666V3.3334C4.3167 2.77308 4.77262 2.3167 5.3334 2.3167ZM18.3166 5.6667V3.35374L21.6463 6.6834H19.3333C18.7725 6.6834 18.3166 6.22703 18.3166 5.6667ZM7.0834 13.6834C6.67816 13.6834 6.35 14.0114 6.35 14.4167C6.35 14.822 6.67812 15.1501 7.0834 15.1501H19.9167C20.322 15.1501 20.6501 14.822 20.6501 14.4167C20.65 14.0114 20.3218 13.6834 19.9166 13.6834H7.0834ZM7.0834 17.1834C6.67816 17.1834 6.35 17.5114 6.35 17.9167C6.35 18.322 6.67812 18.6501 7.0834 18.6501H19.9167C20.322 18.6501 20.6501 18.322 20.6501 17.9167C20.65 17.5114 20.3218 17.1834 19.9166 17.1834H7.0834ZM7.0834 20.6834C6.67816 20.6834 6.35 21.0114 6.35 21.4167C6.35 21.822 6.67812 22.1501 7.0834 22.1501H19.9167C20.322 22.1501 20.6501 21.822 20.6501 21.4167C20.65 21.0114 20.3218 20.6834 19.9166 20.6834H7.0834ZM7.0834 24.1834C6.67816 24.1834 6.35 24.5114 6.35 24.9167C6.35 25.322 6.67812 25.6501 7.0834 25.6501H14.0834C14.4887 25.6501 14.8167 25.3219 14.8167 24.9167C14.8166 24.5114 14.4887 24.1834 14.0834 24.1834H7.0834Z" fill="#5858D1" stroke="#5858D1" stroke-width="0.3"/>
</svg>
