<svg width="13" height="10" viewBox="0 0 13 10" fill="none" xmlns="http://www.w3.org/2000/svg">
<path opacity="0.5" d="M10.9229 0H2.07711C1.52571 0.000770271 0.997179 0.22176 0.607686 0.614395C0.218194 1.00703 -0.000382945 1.53918 5.03662e-07 2.09387V7.90613C-0.000382945 8.46082 0.218194 8.99297 0.607686 9.3856C0.997179 9.77824 1.52571 9.99923 2.07711 10H10.9229C11.4743 9.99923 12.0028 9.77824 12.3923 9.3856C12.7818 8.99297 13.0004 8.46082 13 7.90613V2.09387C13.0004 1.53918 12.7818 1.00703 12.3923 0.614395C12.0028 0.22176 11.4743 0.000770271 10.9229 0ZM2.07711 0.655333H10.9229C11.1104 0.655523 11.2961 0.692894 11.4692 0.765308C11.6424 0.837722 11.7997 0.94376 11.9321 1.07736C12.0645 1.21096 12.1694 1.3695 12.2409 1.54392C12.3123 1.71834 12.3489 1.90522 12.3486 2.09387V2.14327H0.648556V2.09387C0.648176 1.90497 0.684856 1.71786 0.756496 1.54325C0.828135 1.36864 0.933324 1.20997 1.06603 1.07633C1.19874 0.942693 1.35637 0.836716 1.52987 0.764473C1.70337 0.69223 1.88934 0.655141 2.07711 0.655333ZM10.9229 9.34467H2.07711C1.88958 9.34448 1.70392 9.30711 1.53076 9.23469C1.35759 9.16228 1.20031 9.05624 1.0679 8.92264C0.935499 8.78904 0.830568 8.6305 0.759109 8.45608C0.687651 8.28166 0.651065 8.09478 0.651445 7.90613V4.12816H12.3514V7.90613C12.3518 8.09503 12.3151 8.28214 12.2435 8.45675C12.1719 8.63136 12.0667 8.79003 11.934 8.92367C11.8013 9.05731 11.6436 9.16328 11.4701 9.23553C11.2966 9.30777 11.1107 9.34486 10.9229 9.34467Z" fill="white"/>
</svg>
