<svg width="14" height="16" viewBox="0 0 14 16" fill="none" xmlns="http://www.w3.org/2000/svg">
<path d="M11.6154 0.9H11.6155C12.0094 0.900437 12.3869 1.05887 12.6651 1.34018C12.9433 1.62145 13.0996 2.00258 13.1 2.39989V2.4V13.6V13.6001C13.0996 13.9974 12.9433 14.3785 12.6651 14.6598C12.3869 14.9411 12.0094 15.0996 11.6155 15.1H11.6154H2.38462H2.3845C1.99056 15.0996 1.61311 14.9411 1.33489 14.6598C1.05671 14.3785 0.900432 13.9974 0.9 13.6001L0.9 13.6L0.9 5.2V5.19977C0.900077 5.16652 0.903058 5.13335 0.908908 5.10063V5.09824L0.911109 5.08793C0.92121 5.04058 0.93731 4.99472 0.959021 4.9515M11.6154 0.9L1.04869 4.99576M11.6154 0.9L5.15385 0.899999L5.15344 0.900001C5.11875 0.900143 5.08416 0.903536 5.05011 0.910135M11.6154 0.9V1M0.959021 4.9515C0.959146 4.95125 0.959272 4.951 0.959397 4.95075L1.04869 4.99576M0.959021 4.9515C0.958899 4.95175 0.958778 4.952 0.958656 4.95225L1.04869 4.99576M0.959021 4.9515C0.964456 4.9403 0.969998 4.93 0.975557 4.92016M1.04869 4.99576C1.05317 4.9865 1.05788 4.97773 1.06295 4.96877M0.975557 4.92016C0.975429 4.9204 0.975301 4.92063 0.975173 4.92087L1.06295 4.96877M0.975557 4.92016C0.999353 4.8767 1.02875 4.83658 1.063 4.80086L1.06408 4.79974L1.06408 4.79975L4.75639 1.06641L4.75748 1.06531L4.75749 1.06532C4.79269 1.03081 4.83227 1.00112 4.8752 0.977025M0.975557 4.92016C0.975688 4.91993 0.975819 4.9197 0.97595 4.91947L1.06295 4.96877M1.06295 4.96877L4.8752 0.977025M4.8752 0.977025C4.87499 0.977146 4.87478 0.977267 4.87457 0.977388L4.92467 1.06393M4.8752 0.977025L1.13518 4.87007L4.82749 1.13673C4.85656 1.10824 4.88924 1.08376 4.92467 1.06393M4.8752 0.977025C4.88539 0.97114 4.89597 0.965334 4.90743 0.959661M4.8752 0.977025C4.87541 0.976905 4.87563 0.976784 4.87584 0.976664L4.92467 1.06393M4.92467 1.06393C4.9339 1.05859 4.9429 1.05367 4.95236 1.049M11.6154 15H2.38462C2.01752 14.9996 1.66557 14.852 1.40599 14.5895C1.14641 14.327 1.0004 13.9712 1 13.6L11.6154 15ZM11.6154 15C11.9825 14.9996 12.3344 14.852 12.594 14.5895C12.8536 14.327 12.9996 13.9712 13 13.6V2.4M11.6154 15L13 2.4M13 2.4C12.9996 2.02882 12.8536 1.67296 12.594 1.4105M13 2.4L12.594 1.4105M11.6154 1H5.15385C5.12481 1.00012 5.09585 1.00302 5.06735 1.00866M11.6154 1C11.9825 1.00041 12.3344 1.14804 12.594 1.4105M11.6154 1L12.594 1.4105M5.06735 1.00866L5.05208 0.90983L5.05011 0.910135M5.06735 1.00866L5.06207 1.00947C5.02399 1.0179 4.98713 1.03118 4.95236 1.049M5.06735 1.00866L5.04794 0.910559C5.04866 0.910416 5.04938 0.910275 5.05011 0.910135M5.05011 0.910135L5.0468 0.910647L5.04676 0.910441L5.04046 0.911835C4.99428 0.922054 4.94958 0.938127 4.90743 0.959661M4.90743 0.959661C4.9072 0.959777 4.90697 0.959893 4.90675 0.960009L4.95236 1.049M4.90743 0.959661C4.90766 0.959546 4.90789 0.959431 4.90813 0.959315L4.95236 1.049M2.02308 5.76667H4.23077H4.23088C4.62482 5.76623 5.00228 5.60779 5.2805 5.32649C5.55868 5.04521 5.71495 4.66408 5.71538 4.26678V4.26667V2.03333H11.6153C11.7108 2.03343 11.8026 2.07183 11.8705 2.14047C11.9384 2.20915 11.9768 2.3025 11.9769 2.4001V13.5999C11.9768 13.6975 11.9384 13.7908 11.8705 13.8595C11.8026 13.9282 11.7108 13.9666 11.6153 13.9667H2.38472C2.28919 13.9666 2.19738 13.9282 2.12949 13.8595C2.06157 13.7908 2.02317 13.6975 2.02308 13.5999V5.76667ZM5.08572 8.35004C5.14752 8.69089 5.29723 9.00857 5.51891 9.27137C5.24808 9.47068 5.0243 9.7288 4.86432 10.0272C4.68605 10.3598 4.59258 10.7319 4.59231 11.11V11.1101L4.59231 11.7711L4.59231 11.7713C4.59261 12.0345 4.69617 12.2872 4.88061 12.4737C5.0651 12.6602 5.31546 12.7653 5.57685 12.7656H5.57696H8.42304H8.42315C8.68454 12.7653 8.9349 12.6602 9.11939 12.4737C9.30383 12.2872 9.40739 12.0345 9.40769 11.7713V11.7711V11.1101V11.11C9.40742 10.7319 9.31395 10.3598 9.13568 10.0272C8.9757 9.7288 8.75192 9.47068 8.48109 9.27137C8.70277 9.00857 8.85248 8.69089 8.91428 8.35004C8.98302 7.97097 8.94003 7.57981 8.79062 7.22517C8.6412 6.87052 8.39189 6.56794 8.07353 6.35518C7.75516 6.14241 7.38184 6.02891 7 6.02891C6.61816 6.02891 6.24484 6.14241 5.92647 6.35518C5.60811 6.56794 5.3588 6.87052 5.20938 7.22517C5.05997 7.57981 5.01698 7.97097 5.08572 8.35004ZM4.23067 4.63333H2.81538L4.59231 2.83666V4.26657C4.59221 4.36416 4.55381 4.45752 4.48589 4.52619C4.418 4.59484 4.32619 4.63324 4.23067 4.63333ZM7.00012 7.16563C7.16262 7.16566 7.32156 7.21438 7.45685 7.30579C7.59219 7.39723 7.69784 7.5273 7.76028 7.6797C7.82271 7.83211 7.83906 7.99988 7.80722 8.16175C7.77538 8.32361 7.69681 8.47214 7.58161 8.58861C7.46643 8.70507 7.31982 8.78426 7.16037 8.81633C7.00092 8.8484 6.83565 8.83195 6.68538 8.76902C6.53511 8.70608 6.40649 8.59942 6.31592 8.46237C6.22536 8.32533 6.17695 8.1641 6.17692 7.99908C6.17717 7.77776 6.26425 7.5658 6.4187 7.40963C6.57311 7.2535 6.78223 7.16589 7.00012 7.16563ZM5.71538 11.6323V11.1102C5.71575 10.8064 5.83528 10.5154 6.04742 10.3009C6.25952 10.0864 6.54684 9.966 6.84632 9.96563H7.15368C7.45316 9.966 7.74048 10.0864 7.95258 10.3009C8.16472 10.5154 8.28425 10.8064 8.28462 11.1102V11.6323H5.71538Z" fill="#5858D1" stroke="#5858D1" stroke-width="0.2"/>
</svg>
