<svg width="14" height="12" viewBox="0 0 14 12" fill="none" xmlns="http://www.w3.org/2000/svg">
<path d="M12.9818 0H1.03264C0.457312 0 0 0.481203 0 1.05263V10.9474C0 11.5338 0.457312 12 1.03264 12H12.967C13.5424 12 13.9997 11.5338 13.9997 10.9474V1.05263C14.0144 0.466165 13.5423 0 12.9818 0ZM4.4256 1.08271C4.67639 1.08271 4.86817 1.29323 4.86817 1.53383C4.86817 1.78947 4.66164 1.98496 4.4256 1.98496C4.17482 1.98496 3.98304 1.77444 3.98304 1.53383C3.98304 1.2782 4.17482 1.08271 4.4256 1.08271ZM3.06842 1.08271C3.3192 1.08271 3.51098 1.29323 3.51098 1.53383C3.51098 1.78947 3.30445 1.98496 3.06842 1.98496C2.81763 1.98496 2.62586 1.77444 2.62586 1.53383C2.62586 1.2782 2.83239 1.08271 3.06842 1.08271ZM1.71123 1.08271C1.96202 1.08271 2.15379 1.29323 2.15379 1.53383C2.15379 1.78947 1.94727 1.98496 1.71123 1.98496C1.46045 1.98496 1.26867 1.77444 1.26867 1.53383C1.26867 1.2782 1.4752 1.08271 1.71123 1.08271ZM12.7162 10.6015C12.7162 10.6466 12.6867 10.6767 12.6425 10.6767H1.37194C1.32768 10.6767 1.29818 10.6466 1.29818 10.6015V3.11278H12.7015V10.6015H12.7162Z" fill="#5858D1"/>
<path d="M4.7354 8.6015C4.83866 8.70677 4.97143 8.76692 5.11895 8.76692C5.23697 8.76692 5.36973 8.7218 5.473 8.63158C5.67953 8.43609 5.69428 8.10526 5.5025 7.89474L4.51412 6.81203L5.5025 5.72932C5.69428 5.5188 5.67953 5.18797 5.473 4.99248C5.26647 4.79699 4.94193 4.81203 4.75015 5.02256L3.43722 6.45113C3.2602 6.64662 3.2602 6.96241 3.43722 7.15789L4.7354 8.6015Z" fill="#5858D1"/>
<path d="M8.55617 8.63158C8.65943 8.7218 8.77745 8.76692 8.91022 8.76692C9.04299 8.76692 9.19051 8.70677 9.29377 8.6015L10.5919 7.15789C10.769 6.96241 10.769 6.64662 10.5919 6.45113L9.29377 5.00752C9.10199 4.79699 8.77745 4.78195 8.57092 4.97744C8.36439 5.17293 8.34964 5.50376 8.54142 5.71429L9.5298 6.79699L8.54142 7.8797C8.33489 8.10526 8.33489 8.43609 8.55617 8.63158Z" fill="#5858D1"/>
<path d="M6.53514 9.42857C6.56465 9.42857 6.59415 9.44361 6.63841 9.44361C6.87444 9.44361 7.09572 9.26316 7.13998 9.02256L7.89233 4.96241C7.95134 4.67669 7.75956 4.40601 7.47927 4.34586C7.19898 4.28571 6.93345 4.4812 6.87444 4.76692L6.12209 8.81203C6.07783 9.09774 6.25485 9.36842 6.53514 9.42857Z" fill="#5858D1"/>
</svg>
