<svg width="14" height="14" viewBox="0 0 14 14" fill="none" xmlns="http://www.w3.org/2000/svg">
<path d="M2.02558 0C0.917014 0 2.64489e-06 0.916998 0 2.02558V11.9744C0 13.083 0.917014 14 2.02558 14H11.9744C13.083 14 14 13.083 14 11.9744V2.02558C14 0.916998 13.083 0 11.9744 0H2.02558ZM2.02558 1.40096H11.9744C12.3266 1.40096 12.599 1.67341 12.599 2.02558V4.20014H1.39959V2.02558C1.39959 1.67341 1.67341 1.40096 2.02558 1.40096ZM9.32969 2.10349C8.94533 2.10499 8.63412 2.4162 8.63263 2.80055C8.63111 3.18704 8.9432 3.50157 9.32969 3.50308H11.1995C11.5859 3.50157 11.898 3.18704 11.8965 2.80055C11.895 2.4162 11.5838 2.10499 11.1995 2.10349H9.32969ZM1.39959 5.59973H12.599V11.9744C12.599 12.3266 12.3266 12.6004 11.9744 12.6004H2.02558C1.67341 12.6004 1.39959 12.3266 1.39959 11.9744V5.59973ZM6.99932 6.53461C6.61229 6.5331 6.29754 6.84602 6.29679 7.23304V10.4969C6.29526 10.8855 6.61069 11.201 6.99932 11.1995C7.3858 11.1979 7.69789 10.8834 7.69638 10.4969V7.23304C7.69563 6.84815 7.3842 6.53611 6.99932 6.53461ZM4.20014 7.93557C3.81578 7.93707 3.50457 8.24827 3.50308 8.63263V10.4969C3.50156 10.8834 3.81365 11.1979 4.20014 11.1995C4.58876 11.201 4.90419 10.8855 4.90267 10.4969V8.63263C4.90116 8.24614 4.58663 7.93406 4.20014 7.93557ZM9.79986 7.93557C9.41337 7.93406 9.09884 8.24614 9.09733 8.63263V10.4969C9.09581 10.8855 9.41124 11.201 9.79986 11.1995C10.1863 11.1979 10.4984 10.8834 10.4969 10.4969V8.63263C10.4954 8.24827 10.1842 7.93707 9.79986 7.93557Z" fill="#5858D1"/>
</svg>
