<svg width="16" height="14" viewBox="0 0 16 14" fill="none" xmlns="http://www.w3.org/2000/svg">
<path d="M13.4358 0.9H2.56425C1.63801 0.9 0.9 1.74729 0.9 2.75824V11.2418C0.9 12.2527 1.63801 13.1 2.56425 13.1H13.4358C14.362 13.1 15.1 12.2527 15.1 11.2418V2.75824C15.1 1.74729 14.362 0.9 13.4358 0.9ZM14.157 2.75824V3.88901H1.84302V2.75824C1.84302 2.54303 1.93037 2.33546 2.06703 2.18185C2.204 2.0279 2.38373 1.93516 2.56425 1.93516H13.4358C13.6163 1.93516 13.796 2.0279 13.933 2.18185C14.0696 2.33546 14.157 2.54303 14.157 2.75824ZM1.84302 11.2418V6.06703H14.157V11.2418C14.157 11.7221 13.8029 12.0648 13.4358 12.0648H2.56425C2.19706 12.0648 1.84302 11.7221 1.84302 11.2418ZM3.08994 8.47253C3.08994 8.73622 3.28047 8.96813 3.5419 8.96813H6.86592C7.1142 8.96813 7.35698 8.74999 7.35698 8.47253C7.35698 8.15813 7.12114 7.93297 6.86592 7.93297H3.5419C3.27412 7.93297 3.08994 8.17229 3.08994 8.47253ZM3.08994 10.3187C3.08994 10.4511 3.13662 10.5824 3.2134 10.6819C3.28999 10.7813 3.40461 10.8582 3.5419 10.8582H5.84916C5.98381 10.8582 6.10678 10.784 6.19273 10.6873C6.27939 10.5899 6.34022 10.4572 6.34022 10.3187C6.34022 10.1802 6.27939 10.0474 6.19273 9.95002C6.10678 9.8534 5.98381 9.77912 5.84916 9.77912H3.5419C3.4046 9.77912 3.28999 9.85609 3.2134 9.95542C3.13662 10.055 3.08994 10.1863 3.08994 10.3187Z" fill="#5858D1" stroke="#5858D1" stroke-width="0.2"/>
</svg>
