<svg width="12" height="14" viewBox="0 0 12 14" fill="none" xmlns="http://www.w3.org/2000/svg">
<path d="M11.25 0H0.75C0.551088 0 0.360322 0.0737498 0.21967 0.205025C0.0790178 0.336301 0 0.514348 0 0.7V11.2C0.00187356 11.2937 0.0222127 11.3862 0.0599999 11.473C0.0965573 11.5564 0.150037 11.6325 0.2175 11.697L2.4675 13.797C2.5379 13.8618 2.62227 13.9119 2.715 13.944C2.80517 13.9799 2.90199 13.9989 3 14H11.25C11.4489 14 11.6397 13.9263 11.7803 13.795C11.921 13.6637 12 13.4857 12 13.3V0.7C12 0.514348 11.921 0.336301 11.7803 0.205025C11.6397 0.0737498 11.4489 0 11.25 0ZM10.5 12.6H3.75V11.2C3.75 11.0143 3.67098 10.8363 3.53033 10.705C3.38968 10.5737 3.19891 10.5 3 10.5H1.5V1.4H10.5V12.6ZM5.25 3.5C5.25 3.31435 5.32902 3.1363 5.46967 3.00503C5.61032 2.87375 5.80109 2.8 6 2.8H8.25C8.44891 2.8 8.63968 2.87375 8.78033 3.00503C8.92098 3.1363 9 3.31435 9 3.5C9 3.68565 8.92098 3.8637 8.78033 3.99497C8.63968 4.12625 8.44891 4.2 8.25 4.2H6C5.80109 4.2 5.61032 4.12625 5.46967 3.99497C5.32902 3.8637 5.25 3.68565 5.25 3.5ZM3 3.5C3 3.36155 3.04399 3.22622 3.1264 3.1111C3.20881 2.99599 3.32594 2.90627 3.46299 2.85328C3.60003 2.8003 3.75083 2.78644 3.89632 2.81345C4.0418 2.84046 4.17544 2.90713 4.28033 3.00503C4.38522 3.10292 4.45665 3.22765 4.48559 3.36344C4.51453 3.49922 4.49968 3.63997 4.44291 3.76788C4.38614 3.89579 4.29001 4.00511 4.16668 4.08203C4.04334 4.15895 3.89834 4.2 3.75 4.2C3.55109 4.2 3.36032 4.12625 3.21967 3.99497C3.07902 3.8637 3 3.68565 3 3.5ZM5.25 6.3C5.25 6.11435 5.32902 5.9363 5.46967 5.80503C5.61032 5.67375 5.80109 5.6 6 5.6H8.25C8.44891 5.6 8.63968 5.67375 8.78033 5.80503C8.92098 5.9363 9 6.11435 9 6.3C9 6.48565 8.92098 6.6637 8.78033 6.79497C8.63968 6.92625 8.44891 7 8.25 7H6C5.80109 7 5.61032 6.92625 5.46967 6.79497C5.32902 6.6637 5.25 6.48565 5.25 6.3ZM3 6.3C3 6.16155 3.04399 6.02622 3.1264 5.9111C3.20881 5.79599 3.32594 5.70627 3.46299 5.65328C3.60003 5.6003 3.75083 5.58644 3.89632 5.61345C4.0418 5.64046 4.17544 5.70713 4.28033 5.80503C4.38522 5.90292 4.45665 6.02765 4.48559 6.16344C4.51453 6.29922 4.49968 6.43997 4.44291 6.56788C4.38614 6.69579 4.29001 6.80511 4.16668 6.88203C4.04334 6.95895 3.89834 7 3.75 7C3.55109 7 3.36032 6.92625 3.21967 6.79497C3.07902 6.6637 3 6.48565 3 6.3ZM5.25 9.1C5.25 8.91435 5.32902 8.7363 5.46967 8.60503C5.61032 8.47375 5.80109 8.4 6 8.4H8.25C8.44891 8.4 8.63968 8.47375 8.78033 8.60503C8.92098 8.7363 9 8.91435 9 9.1C9 9.28565 8.92098 9.4637 8.78033 9.59497C8.63968 9.72625 8.44891 9.8 8.25 9.8H6C5.80109 9.8 5.61032 9.72625 5.46967 9.59497C5.32902 9.4637 5.25 9.28565 5.25 9.1ZM3 9.1C3 8.96155 3.04399 8.82621 3.1264 8.7111C3.20881 8.59599 3.32594 8.50627 3.46299 8.45328C3.60003 8.4003 3.75083 8.38644 3.89632 8.41345C4.0418 8.44046 4.17544 8.50713 4.28033 8.60503C4.38522 8.70292 4.45665 8.82765 4.48559 8.96344C4.51453 9.09922 4.49968 9.23997 4.44291 9.36788C4.38614 9.49579 4.29001 9.60511 4.16668 9.68203C4.04334 9.75895 3.89834 9.8 3.75 9.8C3.55109 9.8 3.36032 9.72625 3.21967 9.59497C3.07902 9.4637 3 9.28565 3 9.1Z" fill="#5858D1"/>
</svg>
