<svg width="14" height="14" viewBox="0 0 14 14" fill="none" xmlns="http://www.w3.org/2000/svg">
<path d="M9.1 0C10.2084 0 11.1319 0.828177 11.1964 1.89499L11.2 2.01447H9.8C9.8 1.71258 9.53874 1.44621 9.18357 1.4097L9.1 1.40545L3.9977 1.40489L6.45291 2.5005C7.16915 2.82007 7.64486 3.51126 7.69551 4.28891L7.7 4.42697V9.83779L9.1 9.83813C9.46862 9.83813 9.75622 9.59332 9.79543 9.29805L9.8 9.22911H11.2C11.2 10.3128 10.3161 11.1797 9.22236 11.2402L9.1 11.2436L7.7 11.2434V11.8918C7.7 13.0145 6.82575 13.9323 5.72339 13.9964L5.6 14C5.30617 14 5.01559 13.9381 4.74709 13.8183L1.24709 12.2567C0.48872 11.9183 0 11.1633 0 10.3302V2.01447C0 0.930789 0.88389 0.0639133 1.97764 0.00337524L2.1 0H9.1ZM2.1 2.16266C1.7134 2.16266 1.4 2.47726 1.4 2.86537V10.3302C1.4 10.6079 1.56292 10.8596 1.81571 10.9724L5.31571 12.534C5.40521 12.5739 5.50206 12.5946 5.6 12.5946C5.9866 12.5946 6.3 12.2799 6.3 11.8918V4.42697C6.3 4.14927 6.13708 3.89761 5.88429 3.78482L2.38429 2.22322C2.29479 2.18328 2.19794 2.16266 2.1 2.16266ZM11.629 2.95825L11.695 3.01672L13.795 5.12488C13.8139 5.14386 13.8317 5.16393 13.8484 5.18497L13.795 5.12488C13.8226 5.15261 13.8474 5.18209 13.8695 5.21296C13.8792 5.22671 13.8888 5.24114 13.8978 5.25592C13.903 5.26443 13.9079 5.27299 13.9127 5.28164C13.9202 5.29527 13.9274 5.30934 13.9341 5.32368C13.9401 5.33656 13.9457 5.34956 13.9509 5.36271C13.956 5.3756 13.9607 5.38874 13.9651 5.40204C13.9685 5.41252 13.9717 5.42324 13.9747 5.43401C13.9791 5.44993 13.9829 5.46581 13.9861 5.48189C13.9883 5.49327 13.9904 5.50499 13.9922 5.51675C13.9944 5.53113 13.9961 5.54581 13.9974 5.56061C13.9985 5.57382 13.9993 5.58647 13.9997 5.59912C13.9999 5.60618 14 5.61397 14 5.62179L13.9996 5.64516C13.9992 5.6573 13.9985 5.66941 13.9975 5.68152L14 5.62179C14 5.65736 13.9973 5.69231 13.9923 5.72646C13.9904 5.7387 13.9882 5.75108 13.9857 5.7634C13.9828 5.77805 13.9794 5.79234 13.9756 5.80647C13.9722 5.81879 13.9684 5.83143 13.9642 5.84398C13.9602 5.85618 13.956 5.86791 13.9514 5.87948C13.9461 5.89294 13.9404 5.90649 13.9341 5.9199C13.9274 5.93424 13.9202 5.94833 13.9126 5.96211C13.908 5.97061 13.903 5.97916 13.8978 5.98764C13.8873 6.00478 13.8762 6.0214 13.8644 6.0375C13.8601 6.04353 13.8556 6.04951 13.8509 6.05542C13.8494 6.05729 13.8478 6.05931 13.8462 6.06132L13.795 6.1187L11.695 8.22686C11.4216 8.50129 10.9784 8.50129 10.705 8.22686C10.4527 7.97354 10.4333 7.57494 10.6468 7.29926L10.705 7.23306L11.6088 6.3245L9.1 6.32452C8.7134 6.32452 8.4 6.00989 8.4 5.62179C8.4 5.26141 8.67022 4.96439 9.01835 4.9238L9.1 4.91908L11.6095 4.91891L10.705 4.01052C10.4317 3.73609 10.4317 3.29115 10.705 3.01672C10.9574 2.7634 11.3544 2.7439 11.629 2.95825Z" fill="#5858D1"/>
</svg>
