<svg width="24" height="28" viewBox="0 0 24 28" fill="none" xmlns="http://www.w3.org/2000/svg">
<path d="M16.7191 5.15428C16.9295 5.2709 17.1344 5.39466 17.3336 5.5253L18.7399 4.74593C19.8711 4.11902 21.3177 4.49106 21.9708 5.57691L23.6827 8.42309C24.3359 9.50894 23.9483 10.8974 22.817 11.5243L21.4111 12.3035C21.4487 12.7671 21.4492 13.2331 21.4122 13.6971L22.817 14.4757C23.9483 15.1026 24.3359 16.4911 23.6827 17.5769L21.9708 20.4231C21.3177 21.5089 19.8711 21.881 18.7399 21.2541L17.335 20.4755C16.9349 20.7383 16.5142 20.9709 16.0771 21.1714V22.7297C16.0771 23.9836 15.0182 25 13.7119 25H10.2881C8.98181 25 7.92288 23.9836 7.92288 22.7297V21.171C7.70545 21.0708 7.49134 20.9623 7.2809 20.8457C7.07047 20.7291 6.86556 20.6053 6.66644 20.4747L5.26011 21.2541C4.12886 21.881 2.68234 21.5089 2.02921 20.4231L0.317269 17.5769C-0.335857 16.4911 0.0517366 15.1026 1.18298 14.4757L2.58894 13.6965C2.55131 13.2329 2.55083 12.7669 2.58783 12.3029L1.18298 11.5243C0.0517367 10.8974 -0.335857 9.50894 0.317269 8.42309L2.02921 5.57691C2.68234 4.49106 4.12886 4.11902 5.2601 4.74593L6.66495 5.52448C7.06514 5.26169 7.48575 5.02912 7.92288 4.82858V3.27027C7.92288 2.01643 8.98181 1 10.2881 1L13.7119 1C15.0182 1 16.0771 2.01644 16.0771 3.27027V4.829C16.2945 4.9292 16.5087 5.03766 16.7191 5.15428ZM14.0498 3.27027C14.0498 3.09115 13.8985 2.94595 13.7119 2.94595L10.2881 2.94595C10.1015 2.94595 9.95018 3.09115 9.95018 3.27027V6.13192L9.30452 6.37338C8.60584 6.63467 7.95211 6.99572 7.36656 7.44548L6.82599 7.86071L4.24646 6.43117C4.08485 6.34161 3.8782 6.39476 3.7849 6.54988L2.07296 9.39606C1.97966 9.55119 2.03503 9.74954 2.19663 9.8391L4.77617 11.2686L4.67183 11.9256C4.55881 12.6372 4.55993 13.3612 4.67352 14.0726L4.7785 14.7301L2.19663 16.1609C2.03503 16.2505 1.97966 16.4488 2.07296 16.6039L3.7849 19.4501C3.8782 19.6052 4.08485 19.6584 4.24646 19.5688L6.82634 18.1391L7.36676 18.5533C7.65763 18.7763 7.96735 18.9792 8.29455 19.1605C8.62175 19.3418 8.95967 19.4978 9.30625 19.6282L9.95018 19.8703L9.95018 22.7297C9.95018 22.9088 10.1015 23.0541 10.2881 23.0541L13.7119 23.0541C13.8985 23.0541 14.0498 22.9088 14.0498 22.7297L14.0498 19.8681L14.6955 19.6266C15.3942 19.3653 16.0479 19.0043 16.6334 18.5545L17.174 18.1393L19.7535 19.5688C19.9151 19.6584 20.1218 19.6052 20.2151 19.4501L21.927 16.6039C22.0203 16.4488 21.965 16.2505 21.8034 16.1609L19.2238 14.7314L19.3282 14.0744C19.4412 13.3628 19.4401 12.6388 19.3265 11.9274L19.2215 11.2699L21.8034 9.8391C21.965 9.74954 22.0203 9.55119 21.927 9.39606L20.2151 6.54988C20.1218 6.39476 19.9151 6.34161 19.7535 6.43117L17.1737 7.8609L16.6332 7.44668C16.3424 7.22373 16.0326 7.02085 15.7054 6.83952C15.3782 6.65819 15.0403 6.50217 14.6938 6.37185L14.0498 6.12972V3.27027Z" fill="white"/>
<path d="M9.96144 16.3892C11.9115 17.4699 14.405 16.8286 15.5309 14.9568C16.6568 13.085 15.9886 10.6915 14.0386 9.6108C12.0885 8.53011 9.59498 9.17144 8.46911 11.0432C7.34325 12.915 8.01138 15.3085 9.96144 16.3892ZM10.9751 14.704C9.99467 14.1606 9.65876 12.9573 10.2248 12.0162C10.7908 11.0751 12.0445 10.7527 13.0249 11.296C14.0053 11.8394 14.3412 13.0427 13.7752 13.9838C13.2092 14.9249 11.9555 15.2473 10.9751 14.704Z" fill="white"/>
</svg>
