<svg width="24" height="28" viewBox="0 0 24 28" fill="none" xmlns="http://www.w3.org/2000/svg">
<path d="M0 14C0 20.617 5.383 26 12 26C18.617 26 24 20.617 24 14C24 7.383 18.617 2 12 2C5.383 2 0 7.383 0 14ZM12 4C17.514 4 22 8.486 22 14C22 19.514 17.514 24 12 24C6.486 24 2 19.514 2 14C2 8.486 6.486 4 12 4ZM15.293 16.293L17.586 14L15.293 11.707L16.707 10.293L20.414 14L16.707 17.707L15.293 16.293ZM3.586 14L7.293 10.293L8.707 11.707L6.414 14L8.707 16.293L7.293 17.707L3.586 14ZM11.98 19.196L10.019 18.803L12.019 8.803L13.98 9.196L11.98 19.196Z" fill="white"/>
</svg>
