<svg width="24" height="28" viewBox="0 0 24 28" fill="none" xmlns="http://www.w3.org/2000/svg">
<path d="M13.224 5.12243C12.96 5.29243 12.8 5.63243 12.8 6.00243V9.00243H4C3.56 9.00243 3.2 9.45243 3.2 10.0024C3.2 10.5524 3.56 11.0024 4 11.0024H13.6C14.04 11.0024 14.4 10.5524 14.4 10.0024V7.87243L21.76 14.0024L14.4 20.1324V18.0024C14.4 17.4524 14.04 17.0024 13.6 17.0024H4C3.56 17.0024 3.2 17.4524 3.2 18.0024C3.2 18.5524 3.56 19.0024 4 19.0024H12.8V22.0024C12.8 22.3724 12.96 22.7124 13.224 22.8824C13.344 22.9624 13.472 23.0024 13.6 23.0024C13.752 23.0024 13.912 22.9424 14.04 22.8324L23.64 14.8324C23.864 14.6524 24 14.3324 24 14.0024C24 13.6724 23.864 13.3524 23.64 13.1724L14.04 5.17243C13.8 4.96243 13.48 4.94243 13.224 5.12243Z" fill="#FEFEFE"/>
<path d="M13.6 15.002C14.04 15.002 14.4 14.552 14.4 14.002C14.4 13.452 14.04 13.002 13.6 13.002H0.8C0.36 13.002 0 13.452 0 14.002C0 14.552 0.36 15.002 0.8 15.002H13.6Z" fill="#FEFEFE"/>
</svg>
