<svg width="24" height="28" viewBox="0 0 24 28" fill="none" xmlns="http://www.w3.org/2000/svg">
<path d="M4.56646 13.0667C5.14075 14.2343 5.97552 15.251 7.00492 16.0365C8.03432 16.8221 9.23018 17.355 10.4982 17.5933C10.3492 17.8036 10.2456 18.0431 10.1939 18.2963C10.1423 18.5496 10.1438 18.811 10.1983 19.0637C10.2529 19.3163 10.3593 19.5546 10.5106 19.763C10.662 19.9715 10.8549 20.1455 11.0769 20.2739V22.4933C10.0352 22.71 9.09909 23.2831 8.42651 24.1162C7.75393 24.9492 7.38596 25.9913 7.38462 27.0667V28H16.6154V27.0667C16.614 25.9913 16.2461 24.9492 15.5735 24.1162C14.9009 23.2831 13.9649 22.71 12.9231 22.4933V20.2739C13.1458 20.1456 13.3393 19.9714 13.4911 19.7625C13.6429 19.5537 13.7496 19.3149 13.8042 19.0617C13.8587 18.8084 13.86 18.5464 13.8079 18.2926C13.7559 18.0389 13.6516 17.799 13.5018 17.5887C14.7956 17.3457 16.0139 16.7961 17.0569 15.9849C18.0999 15.1737 18.9378 14.124 19.5018 12.922V13.0667C20.6945 13.0647 21.8378 12.5846 22.681 11.7317C23.5242 10.8788 23.9985 9.72262 24 8.51667V6.53333C24 6.03826 23.8055 5.56347 23.4593 5.2134C23.1131 4.86333 22.6435 4.66667 22.1538 4.66667H20.3077V1.86667H21.2308V0H2.76923V1.86667H3.69231V4.66667H1.84615C1.35652 4.66667 0.886947 4.86333 0.540726 5.2134C0.194505 5.56347 7.29471e-09 6.03826 7.29471e-09 6.53333V8.4C-6.82896e-05 9.62915 0.479473 10.8087 1.33447 11.6825C2.18947 12.5562 3.35088 13.0536 4.56646 13.0667ZM14.6114 26.1333H9.38861C9.57928 25.5871 9.93283 25.114 10.4005 24.7794C10.8682 24.4448 11.4271 24.2652 12 24.2652C12.5729 24.2652 13.1318 24.4448 13.5995 24.7794C14.0672 25.114 14.4207 25.5871 14.6114 26.1333ZM22.1538 6.53333V8.51667C22.1524 9.11928 21.9504 9.70386 21.5803 10.1762C21.2102 10.6486 20.6937 10.9813 20.1138 11.1207C20.2418 10.5337 20.3068 9.93442 20.3077 9.33333V6.53333H22.1538ZM5.53846 1.86667H18.4615V9.33333C18.4615 11.0661 17.7808 12.7279 16.569 13.9531C15.3572 15.1783 13.7137 15.8667 12 15.8667C10.2863 15.8667 8.64278 15.1783 7.431 13.9531C6.21923 12.7279 5.53846 11.0661 5.53846 9.33333V1.86667ZM1.84615 6.53333H3.69231V9.33333C3.69295 9.92253 3.75483 10.51 3.87692 11.0861C3.29514 10.9234 2.78189 10.5729 2.41529 10.088C2.0487 9.60308 1.84885 9.01034 1.84615 8.4V6.53333Z" fill="#FEFEFE"/>
<path d="M10.3431 10.2396L12 9.48547L13.6569 10.2396L13.4594 8.41307L14.6815 7.05227L12.9018 6.678L12 5.08293L11.0982 6.678L9.31846 7.05227L10.5406 8.41307L10.3431 10.2396Z" fill="#FEFEFE"/>
</svg>
