<svg width="24" height="29" viewBox="0 0 24 29" fill="none" xmlns="http://www.w3.org/2000/svg">
<path d="M18.5465 0.00720319C18.4082 0.00364272 18.271 0.039639 18.1444 0.112681C18.0178 0.185723 17.9049 0.294053 17.8135 0.430116L11.9996 8.83224L6.18715 0.430116C6.10424 0.304752 6.00305 0.202335 5.88951 0.12887C5.77598 0.0554061 5.65239 0.0123744 5.52599 0.00230017C5.39958 -0.00777405 5.27292 0.0153126 5.15342 0.0702041C5.03392 0.125096 4.924 0.210688 4.83009 0.321959C4.73619 0.433231 4.66019 0.567942 4.60657 0.71819C4.55295 0.868438 4.52277 1.0312 4.51782 1.19692C4.51286 1.36264 4.53323 1.528 4.57772 1.68328C4.6222 1.83856 4.68992 1.98064 4.7769 2.10118L11.2952 11.525C11.3844 11.654 11.4932 11.7571 11.6146 11.8277C11.7361 11.8983 11.8675 11.9347 12.0003 11.9347C12.1332 11.9347 12.2646 11.8983 12.386 11.8277C12.5075 11.7571 12.6163 11.654 12.7055 11.525L19.2223 2.10118C19.3473 1.92529 19.4308 1.7058 19.4627 1.46918C19.4946 1.23256 19.4736 0.988906 19.4021 0.767585C19.3307 0.546265 19.2119 0.356724 19.0601 0.22181C18.9083 0.0868959 18.7299 0.0123652 18.5465 0.00720319Z" fill="#FEFEFE"/>
<path d="M5.48234 0.021485C5.32139 0.021268 5.16303 0.0745464 5.02209 0.176331C4.88115 0.278116 4.76223 0.425078 4.67648 0.603458L0.147099 10.0254C0.0363274 10.255 -0.0141297 10.5257 0.00340991 10.7963C0.0209496 11.0669 0.105525 11.3225 0.244259 11.5243L11.2934 27.5894C11.3826 27.719 11.4915 27.8227 11.6133 27.8936C11.735 27.9645 11.8667 28.0012 11.9999 28.0012C12.1332 28.0012 12.2649 27.9645 12.3866 27.8936C12.5083 27.8227 12.6173 27.719 12.7065 27.5894L23.7542 11.5243C23.8931 11.3227 23.978 11.0672 23.9958 10.7966C24.0136 10.526 23.9633 10.2552 23.8528 10.0254L19.322 0.603458C19.2363 0.425347 19.1176 0.278554 18.977 0.176784C18.8363 0.0750143 18.6782 0.0215844 18.5175 0.021485H5.48234ZM6.00672 2.51218H17.9931L21.8595 10.5569L11.9992 24.8948L2.13888 10.5569L6.00672 2.51218Z" fill="#FEFEFE"/>
<path d="M0.951598 9.44336C0.699219 9.44336 0.457176 9.57466 0.278716 9.80839C0.100257 10.0421 0 10.3591 0 10.6896C0 11.0202 0.100257 11.3372 0.278716 11.5709C0.457176 11.8046 0.699219 11.9359 0.951598 11.9359H23.0484C23.3008 11.9359 23.5428 11.8046 23.7213 11.5709C23.8997 11.3372 24 11.0202 24 10.6896C24 10.3591 23.8997 10.0421 23.7213 9.80839C23.5428 9.57466 23.3008 9.44336 23.0484 9.44336H0.951598Z" fill="#FEFEFE"/>
</svg>
