<svg width="24" height="28" viewBox="0 0 24 28" fill="none" xmlns="http://www.w3.org/2000/svg">
<path d="M1.10486 20.7486C1.71867 20.7486 2.20972 20.277 2.20972 19.6874V14.2047C2.20972 8.81032 6.78261 4.44769 12.3683 4.44769H17.8312V5.9805C17.8312 6.27527 17.9847 6.54057 18.2609 6.68796C18.3836 6.74691 18.5371 6.80587 18.6905 6.80587C18.844 6.80587 18.9974 6.77639 19.1202 6.68796L23.5089 4.12344C23.7545 3.97605 23.9079 3.71076 23.9079 3.41598C23.9079 3.12121 23.7545 2.85592 23.5089 2.70853L19.1202 0.114532C18.844 -0.0328542 18.5371 -0.0328542 18.2609 0.0850547C17.9847 0.232441 17.8312 0.527213 17.8312 0.821986V2.3548H12.3683C5.55499 2.3548 0 7.69018 0 14.2341V19.7169C0 20.277 0.491049 20.7486 1.10486 20.7486Z" fill="#FEFEFE"/>
<path d="M22.8951 7.24802C22.2813 7.24802 21.7903 7.71966 21.7903 8.30921V13.792C21.7903 19.1863 17.2174 23.5489 11.6317 23.5489H6.1688V22.0161C6.1688 21.7213 6.01535 21.4561 5.73913 21.3087C5.46292 21.1613 5.12532 21.1613 4.8798 21.3381L0.491049 23.9027C0.245524 24.0501 0.0920717 24.3153 0.0920717 24.6101C0.0920717 24.9049 0.245524 25.1702 0.491049 25.3176L4.8798 27.8821C5.00256 27.9705 5.15601 28 5.30946 28C5.46291 28 5.58568 27.9705 5.73913 27.8821C6.01535 27.7347 6.1688 27.4694 6.1688 27.1746V25.6418H11.6317C18.445 25.6418 24 20.3064 24 13.7625V8.30921C24 7.71966 23.509 7.24802 22.8951 7.24802Z" fill="#FEFEFE"/>
<path d="M12.9207 10.0484C13.688 10.0484 14.3939 10.3431 15.0077 10.9032C15.4066 11.2569 16.0205 11.2569 16.3887 10.8737C16.757 10.4905 16.757 9.90098 16.3581 9.54725C15.376 8.66293 14.2097 8.1913 12.9207 8.1913C10.6803 8.1913 8.77749 9.69463 7.97954 11.8465H6.84399C6.38363 11.8465 5.98465 12.2002 5.98465 12.6718C5.98465 13.1435 6.35294 13.4972 6.84399 13.4972H7.61125C7.58056 13.6741 7.54987 13.8509 7.54987 14.0278C7.54987 14.2047 7.58056 14.3815 7.61125 14.5879H6.84399C6.38363 14.5879 5.98465 14.9416 5.98465 15.4132C5.98465 15.8849 6.35294 16.2386 6.84399 16.2386H7.97954C8.77749 18.3904 10.6803 19.8938 12.9207 19.8938C14.179 19.8938 15.376 19.4221 16.3274 18.5378C16.7263 18.1841 16.7263 17.5945 16.3581 17.2113C15.9898 16.8281 15.376 16.8281 14.977 17.1819C14.3939 17.7124 13.6573 18.0072 12.89 18.0072C11.7238 18.0072 10.6803 17.2998 10.0665 16.2091H12.89C13.3504 16.2091 13.7494 15.8554 13.7494 15.3837C13.7494 14.9121 13.3811 14.5584 12.89 14.5584H9.57545C9.54476 14.3815 9.51407 14.2047 9.51407 13.9983C9.51407 13.8214 9.54476 13.6446 9.57545 13.4677H12.89C13.3504 13.4677 13.7494 13.114 13.7494 12.6424C13.7494 12.1707 13.3811 11.817 12.89 11.817H10.0665C10.6803 10.7558 11.7238 10.0484 12.9207 10.0484Z" fill="#FEFEFE"/>
</svg>
