<svg width="14" height="14" viewBox="0 0 14 14" fill="none" xmlns="http://www.w3.org/2000/svg">
<path d="M2.30468 12.1707H11.6953C12.0422 12.1801 12.3813 12.0679 12.6517 11.8541C12.9222 11.6404 13.1066 11.3391 13.1718 11.004C13.2243 10.6976 13.1717 10.3827 13.0221 10.109C12.8725 9.83524 12.6346 9.61818 12.3457 9.492C12.3098 9.48346 12.2779 9.46304 12.2554 9.43416C12.233 9.40527 12.2213 9.36968 12.2223 9.33333V5.13333C12.2223 3.77189 11.6721 2.46621 10.6927 1.50352C9.71335 0.540832 8.38504 0 7 0C5.61496 0 4.28665 0.540832 3.30728 1.50352C2.32791 2.46621 1.77771 3.77189 1.77771 5.13333V9.33333C1.77514 9.3633 1.76395 9.39194 1.74546 9.4159C1.72697 9.43986 1.70193 9.45816 1.67326 9.46867C1.37632 9.59267 1.13101 9.81209 0.977484 10.091C0.823961 10.3699 0.771327 10.6918 0.828199 11.004C0.893422 11.3391 1.07776 11.6404 1.34825 11.8541C1.61875 12.0679 1.95776 12.1801 2.30468 12.1707ZM7 0.970667C8.13321 0.970667 9.22001 1.41317 10.0213 2.20082C10.8226 2.98847 11.2728 4.05676 11.2728 5.17067V9.37067C11.2744 9.58229 11.3385 9.7889 11.4573 9.96537C11.5762 10.1418 11.7446 10.2806 11.9422 10.3647C12.0367 10.4053 12.1152 10.4752 12.1657 10.5636C12.2162 10.652 12.2361 10.7542 12.2223 10.8547C12.194 10.9672 12.1271 11.0668 12.0328 11.1365C11.9385 11.2062 11.8227 11.2418 11.7048 11.2373H2.30468C2.18522 11.244 2.06715 11.2094 1.97091 11.1395C1.87466 11.0696 1.80632 10.9689 1.77771 10.8547C1.75906 10.7518 1.77606 10.6458 1.82598 10.5536C1.87591 10.4613 1.95587 10.3883 2.05306 10.346C2.25187 10.2644 2.42182 10.1271 2.54172 9.95113C2.66161 9.77519 2.72613 9.56843 2.72721 9.35667V5.15667C2.73098 4.04519 3.18281 2.98049 3.98371 2.19586C4.7846 1.41124 5.86925 0.97066 7 0.970667Z" fill="white"/>
<path d="M6.93828 14C7.56784 14 8.17162 13.7542 8.61679 13.3166C9.06196 12.879 9.31205 12.2855 9.31205 11.6667H8.36254C8.36254 12.038 8.21249 12.3941 7.94539 12.6566C7.67829 12.9192 7.31602 13.0667 6.93828 13.0667C6.56054 13.0667 6.19828 12.9192 5.93118 12.6566C5.66408 12.3941 5.51402 12.038 5.51402 11.6667H4.56451C4.56451 12.2855 4.81461 12.879 5.25977 13.3166C5.70494 13.7542 6.30872 14 6.93828 14Z" fill="white"/>
<path d="M13.5706 6.53333C13.6959 6.52152 13.8112 6.46131 13.8913 6.36593C13.9715 6.27055 14.0098 6.1478 13.9979 6.02467L13.8365 4.31667C13.7662 3.57045 13.5722 2.84057 13.262 2.156C13.2367 2.09549 13.1988 2.04088 13.1506 1.99572C13.1025 1.95056 13.0452 1.91585 12.9825 1.89385C12.9199 1.87184 12.8532 1.86304 12.7868 1.868C12.7205 1.87297 12.6559 1.89159 12.5973 1.92267C12.4941 1.97743 12.4152 2.0678 12.3758 2.17637C12.3363 2.28495 12.3391 2.40403 12.3837 2.51067C12.6569 3.11051 12.827 3.75076 12.8869 4.40533L13.0484 6.11333C13.0543 6.17473 13.0725 6.23437 13.1021 6.28879C13.1316 6.34321 13.1718 6.39135 13.2204 6.4304C13.2689 6.46946 13.3249 6.49866 13.385 6.51633C13.4451 6.534 13.5082 6.53978 13.5706 6.53333Z" fill="white"/>
<path d="M0.429407 6.53333C0.304148 6.52152 0.188784 6.46131 0.108665 6.36593C0.0285469 6.27055 -0.00977185 6.1478 0.0021286 6.02467L0.163545 4.31667C0.233764 3.57045 0.427815 2.84057 0.737997 2.156C0.763285 2.09549 0.801233 2.04088 0.849379 1.99572C0.897524 1.95056 0.95479 1.91585 1.01746 1.89385C1.08014 1.87184 1.14682 1.86304 1.21317 1.868C1.27953 1.87297 1.34409 1.89159 1.40265 1.92267C1.50586 1.97743 1.5848 2.0678 1.62425 2.17637C1.6637 2.28495 1.66086 2.40403 1.61629 2.51067C1.34195 3.10877 1.1703 3.74742 1.1083 4.40067L0.946889 6.10867C0.941524 6.17004 0.92385 6.22977 0.894887 6.28439C0.865924 6.33902 0.826244 6.38747 0.778136 6.42695C0.730029 6.46643 0.674446 6.49616 0.614593 6.51442C0.554739 6.53267 0.491801 6.5391 0.429407 6.53333Z" fill="white"/>
</svg>
