<svg width="17" height="19" viewBox="0 0 17 19" fill="none" xmlns="http://www.w3.org/2000/svg">
<path d="M4.78394 7.21077H3.43894C3.30633 7.21077 3.17916 7.26344 3.08539 7.35721C2.99162 7.45098 2.93894 7.57816 2.93894 7.71077V11.2828C2.93894 11.4154 2.99162 11.5426 3.08539 11.6363C3.17916 11.7301 3.30633 11.7828 3.43894 11.7828C3.57155 11.7828 3.69873 11.7301 3.79249 11.6363C3.88626 11.5426 3.93894 11.4154 3.93894 11.2828V9.99977H4.78394C5.15403 9.99792 5.50833 9.8496 5.76937 9.58725C6.03041 9.3249 6.17695 8.96986 6.17694 8.59977C6.17841 8.41661 6.14336 8.235 6.07383 8.06555C6.00429 7.8961 5.90168 7.74222 5.77198 7.61289C5.64228 7.48356 5.4881 7.38139 5.31845 7.31234C5.1488 7.2433 4.96709 7.20877 4.78394 7.21077ZM4.78394 8.99677H3.93894V8.21077H4.78394C4.83589 8.20953 4.88754 8.21886 4.93578 8.23817C4.98402 8.25748 5.02784 8.28639 5.06458 8.32313C5.10132 8.35987 5.13022 8.40369 5.14954 8.45193C5.16885 8.50016 5.17817 8.55182 5.17694 8.60377C5.17734 8.65563 5.16746 8.70705 5.14789 8.75508C5.12832 8.80311 5.09943 8.84679 5.0629 8.8836C5.02637 8.92041 4.98291 8.94963 4.93503 8.96957C4.88715 8.9895 4.8358 8.99977 4.78394 8.99977V8.99677ZM8.72794 7.20477H7.37794C7.24533 7.20477 7.11816 7.25744 7.02439 7.35121C6.93062 7.44498 6.87794 7.57216 6.87794 7.70477V11.2878C6.87794 11.4204 6.93062 11.5476 7.02439 11.6413C7.11816 11.7351 7.24533 11.7878 7.37794 11.7878H8.72794C8.91179 11.7878 9.09384 11.7516 9.2637 11.6812C9.43355 11.6108 9.58789 11.5077 9.71789 11.3777C9.84789 11.2477 9.95102 11.0934 10.0214 10.9235C10.0917 10.7537 10.1279 10.5716 10.1279 10.3878V8.59977C10.1266 8.22933 9.97853 7.87452 9.71613 7.61305C9.45372 7.35158 9.09838 7.20476 8.72794 7.20477ZM9.12794 10.3918C9.12794 10.4979 9.0858 10.5996 9.01078 10.6746C8.93577 10.7496 8.83403 10.7918 8.72794 10.7918H7.87794V8.20477H8.72794C8.83403 8.20477 8.93577 8.24691 9.01078 8.32192C9.0858 8.39694 9.12794 8.49868 9.12794 8.60476V10.3918ZM14.0909 7.70477C14.0909 7.83737 14.0383 7.96455 13.9445 8.05832C13.8507 8.15209 13.7235 8.20477 13.5909 8.20477H11.8419V8.99977H13.0009C13.1335 8.99977 13.2607 9.05244 13.3545 9.14621C13.4483 9.23998 13.5009 9.36716 13.5009 9.49977C13.5009 9.63237 13.4483 9.75955 13.3545 9.85332C13.2607 9.94709 13.1335 9.99977 13.0009 9.99977H11.8419V11.2908C11.8419 11.4234 11.7893 11.5506 11.6955 11.6443C11.6017 11.7381 11.4745 11.7908 11.3419 11.7908C11.2093 11.7908 11.0822 11.7381 10.9884 11.6443C10.8946 11.5506 10.8419 11.4234 10.8419 11.2908V7.70477C10.8419 7.57216 10.8946 7.44498 10.9884 7.35121C11.0822 7.25744 11.2093 7.20477 11.3419 7.20477H13.5869C13.7195 7.20477 13.8467 7.25744 13.9405 7.35121C14.0343 7.44498 14.0869 7.57216 14.0869 7.70477H14.0909ZM14.3849 0.384766H2.62094C2.30407 0.384897 1.99033 0.447488 1.69767 0.568961C1.40501 0.690434 1.13917 0.868406 0.915337 1.0927C0.691509 1.31699 0.514088 1.58321 0.393222 1.87612C0.272356 2.16903 0.210415 2.4829 0.210941 2.79977V16.1998C0.210935 16.8399 0.464526 17.4539 0.916203 17.9074C1.36788 18.361 1.98085 18.6171 2.62094 18.6198H11.6109C11.6934 18.6189 11.7744 18.5986 11.8474 18.5603C11.9204 18.5221 11.9833 18.467 12.0309 18.3998L16.6409 13.7898L16.6709 13.7598C16.7068 13.7228 16.7341 13.6784 16.7509 13.6298C16.7785 13.5703 16.7922 13.5053 16.7909 13.4398V2.79977C16.7915 2.4829 16.7295 2.16903 16.6087 1.87612C16.4878 1.58321 16.3104 1.31699 16.0865 1.0927C15.8627 0.868406 15.5969 0.690434 15.3042 0.568961C15.0115 0.447488 14.6978 0.384897 14.3809 0.384766H14.3849ZM11.1149 15.3448V17.6148H2.62094C2.24669 17.6129 1.88837 17.4631 1.6242 17.198C1.36003 16.9329 1.21146 16.574 1.21094 16.1998V2.79977C1.21068 2.61453 1.24697 2.43106 1.31773 2.25987C1.3885 2.08868 1.49235 1.93314 1.62333 1.80216C1.75432 1.67117 1.90986 1.56733 2.08105 1.49656C2.25223 1.42579 2.4357 1.3895 2.62094 1.38977H14.3809C14.5662 1.3895 14.7496 1.42579 14.9208 1.49656C15.092 1.56733 15.2476 1.67117 15.3785 1.80216C15.5095 1.93314 15.6134 2.08868 15.6841 2.25987C15.7549 2.43106 15.7912 2.61453 15.7909 2.79977V12.9398H13.5309C12.8911 12.9379 12.2768 13.1902 11.823 13.6412C11.3692 14.0922 11.1131 14.705 11.1109 15.3448H11.1149Z" fill="white"/>
</svg>
